<?xml version="1.0" standalone="no"?>
<!DOCTYPE svg PUBLIC "-//W3C//DTD SVG 1.1//EN" "http://www.w3.org/Graphics/SVG/1.1/DTD/svg11.dtd" >
<svg xmlns="http://www.w3.org/2000/svg">
<metadata>Generated by IcoMoon</metadata>
<defs>
<font id="icomoon" horiz-adv-x="512">
<font-face units-per-em="512" ascent="480" descent="-32" />
<missing-glyph horiz-adv-x="512" />
<glyph unicode="&#x20;" d="" horiz-adv-x="256" />
<glyph unicode="&#xe000;" d="M230.46 469.85l-186.187-0.030c-24.425 0-44.273-17.167-44.273-38.309v-420.653c0-21.233 19.848-38.43 44.273-38.43h186.187c24.456 0 44.273 17.167 44.273 38.43l0.030 420.653c-0.030 21.142-19.847 38.339-44.303 38.339zM43.64 413.38h187.482v-213.082l-187.482 0.030v213.052zM77.312 22.152h-16.414c-9.818 0-17.739 7.319-17.739 16.444s7.951 16.504 17.739 16.504h16.414c9.848 0 17.83-7.379 17.83-16.504s-7.982-16.444-17.83-16.444zM77.312 76.785h-16.414c-9.818 0-17.739 7.319-17.739 16.444 0 9.186 7.951 16.504 17.739 16.504h16.414c9.848 0 17.83-7.319 17.83-16.504-0.030-9.125-7.982-16.444-17.83-16.444zM77.312 131.358h-16.414c-9.818 0-17.739 7.379-17.739 16.504s7.951 16.444 17.739 16.444h16.414c9.848 0 17.83-7.319 17.83-16.444s-7.982-16.504-17.83-16.504zM145.559 22.091h-16.324c-9.879 0-17.86 7.379-17.86 16.504s7.981 16.475 17.86 16.475h16.324c9.848 0 17.8-7.379 17.8-16.504s-7.952-16.475-17.8-16.475zM145.559 76.785h-16.324c-9.879 0-17.86 7.319-17.86 16.444 0 9.186 7.981 16.504 17.86 16.504h16.324c9.848 0 17.8-7.319 17.8-16.504-0.031-9.125-7.952-16.444-17.8-16.444zM145.559 131.358h-16.324c-9.879 0-17.86 7.379-17.86 16.504s7.981 16.444 17.86 16.444h16.324c9.848 0 17.8-7.319 17.8-16.444s-7.952-16.504-17.8-16.504zM213.865 22.091h-16.444c-9.818 0-17.739 7.379-17.739 16.504s7.951 16.504 17.739 16.504h16.444c9.788 0 17.769-7.379 17.769-16.504s-7.98-16.504-17.769-16.504zM213.865 76.785h-16.444c-9.818 0-17.739 7.319-17.739 16.444 0 9.186 7.951 16.504 17.739 16.504h16.444c9.788 0 17.769-7.319 17.769-16.504-0.029-9.125-7.98-16.444-17.769-16.444zM213.865 131.358h-16.444c-9.818 0-17.739 7.379-17.739 16.504s7.951 16.444 17.739 16.444h16.444c9.788 0 17.769-7.319 17.769-16.444s-7.98-16.504-17.769-16.504zM341.896 378.232l-26.473-26.323c27.678-27.738 27.678-72.463 0-100.111l26.443-26.443c42.345 42.225 42.345 110.622 0.030 152.877zM391.258 427.324l-26.473-26.323c54.874-54.935 54.874-143.601 0-198.475v0l26.413-26.383v0.060c69.632 69.211 69.662 181.67 0.060 251.121zM439.718 475.573l-26.443-26.323c81.619-81.739 81.619-213.534 0-295.093l26.443-26.383c96.376 95.955 96.346 251.663 0 347.799z" />
<glyph unicode="&#xe001;" d="M497.393 472.32l-188.085-0.030c-24.696 0-44.695-17.348-44.695-38.731v-424.9c0-21.474 19.998-38.792 44.695-38.792h188.085c24.757 0 44.755 17.348 44.755 38.792v424.93c-0.030 21.353-19.998 38.731-44.755 38.731zM308.706 415.277h189.38v-215.221h-189.38v215.221zM342.679 20.104h-16.535c-9.939 0-17.92 7.409-17.92 16.595s7.981 16.655 17.92 16.655h16.535c9.939 0 18.040-7.469 18.040-16.655s-8.102-16.595-18.040-16.595zM342.679 75.279h-16.535c-9.939 0-17.92 7.409-17.92 16.595 0 9.276 7.981 16.655 17.92 16.655h16.535c9.939 0 18.040-7.409 18.040-16.655 0-9.186-8.102-16.595-18.040-16.595zM342.679 130.424h-16.535c-9.939 0-17.92 7.469-17.92 16.655s7.981 16.595 17.92 16.595h16.535c9.939 0 18.040-7.409 18.040-16.595s-8.102-16.655-18.040-16.655zM411.648 20.043h-16.474c-9.999 0-18.040 7.469-18.040 16.655s8.011 16.655 18.040 16.655h16.474c9.939 0 17.98-7.469 17.98-16.655s-8.041-16.655-17.98-16.655zM411.648 75.279h-16.474c-9.999 0-18.040 7.409-18.040 16.595 0 9.276 8.011 16.655 18.040 16.655h16.474c9.939 0 17.98-7.409 17.98-16.655 0-9.186-8.041-16.595-17.98-16.595zM411.648 130.424h-16.474c-9.999 0-18.040 7.469-18.040 16.655s8.011 16.595 18.040 16.595h16.474c9.939 0 17.98-7.409 17.98-16.595s-8.041-16.655-17.98-16.655zM480.617 20.043h-16.595c-9.879 0-17.92 7.469-17.92 16.655s8.011 16.655 17.92 16.655h16.595c9.879 0 17.98-7.469 17.98-16.655s-8.101-16.655-17.98-16.655zM480.617 75.279h-16.595c-9.879 0-17.92 7.409-17.92 16.595 0 9.276 8.011 16.655 17.92 16.655h16.595c9.879 0 17.98-7.409 17.98-16.655 0.001-9.186-8.101-16.595-17.98-16.595zM480.617 130.424h-16.595c-9.879 0-17.92 7.469-17.92 16.655s8.011 16.595 17.92 16.595h16.595c9.879 0 17.98-7.409 17.98-16.595s-8.101-16.655-17.98-16.655zM26.714 379.768l-26.714-26.593c27.979-28.040 27.979-73.186 0-101.105l26.684-26.684c42.828 42.616 42.828 111.706 0.030 154.382zM76.589 429.372l-26.714-26.594c55.447-55.507 55.447-145.047 0-200.493v0l26.684-26.654v0.060c70.325 69.933 70.355 183.537 0.030 253.681zM125.53 478.103l-26.684-26.594c82.432-82.552 82.432-215.703 0-298.074l26.684-26.654c97.341 96.948 97.341 254.192 0 351.322z" horiz-adv-x="542" />
<glyph unicode="&#xe002;" d="M412.593 480l-156.554-156.79-156.475 156.632-99.091-99.249 156.396-156.711-156.554-156.712 99.092-99.17 156.554 156.711 156.553-156.553 99.092 99.249-156.475 156.632 156.554 156.791z" />
<glyph unicode="&#xe003;" d="M409.771 279.706c0.956-54.374-54.443-99.635-123.665-100.83-69.257-1.263-126.157 41.95-127.113 96.393-0.922 54.544 54.477 99.737 123.699 100.897 69.257 1.263 126.123-41.949 127.079-96.46zM580.267 269.431c-2.15 126.020-133.837 225.997-294.059 223.095-160.222-2.832-288.324-107.28-286.174-233.403 1.058-60.655 32.017-115.234 81.715-155.238 74.547-64.546 230.161-139.435 307.985-148.343 26.658-3.038-27.375 36.147-58.846 84.173-16.384 21.982 0.137 44.51 63.454 62.498 68.95 19.626 187.734 61.576 185.925 167.218z" horiz-adv-x="580" />
<glyph unicode="&#xe004;" d="M256.781 480h-217.141c-24.954 0-45.218-17.597-45.218-39.451v-433.017c0-21.8 20.264-39.505 45.218-39.505h217.169c24.926 0 45.218 17.704 45.218 39.505l-0.001 433.017c-0.027 21.854-20.291 39.451-45.245 39.451zM91.055 19.146h-16.734c-9.997 0-18.163 7.653-18.163 16.95 0 9.324 8.165 16.95 18.163 16.95h16.734c9.997 0 18.163-7.599 18.163-16.95s-8.165-16.95-18.163-16.95zM160.687 19.146h-16.653c-10.105 0-18.163 7.599-18.163 16.95s8.057 16.95 18.163 16.95h16.627c10.105 0 18.216-7.599 18.216-16.95s-8.085-16.95-18.19-16.95zM230.4 19.146h-16.707c-9.997 0-18.163 7.599-18.163 16.95s8.165 16.95 18.163 16.95h16.734c9.997 0 18.163-7.599 18.163-16.95s-8.166-16.95-18.19-16.95zM257.455 106.375h-218.435v315.473h218.435l-0.027-315.473zM239.697 263.343c0-49.368-40.071-89.384-89.492-89.384s-89.384 40.017-89.384 89.384c0 49.421 39.963 89.438 89.384 89.438s89.492-40.016 89.492-89.438zM204.396 278.973h-108.329v-31.151h108.328l0.001 31.151z" horiz-adv-x="296" />
<glyph unicode="&#xe005;" d="M253.709 480h-210.997c-24.226 0-43.925-17.651-43.925-39.451v-433.071c0-21.8 19.699-39.451 43.924-39.451h210.998c24.226 0 43.924 17.651 43.924 39.451l0.001 433.071c0 21.8-19.699 39.451-43.925 39.451zM92.645 19.092h-16.222c-9.755 0-17.651 7.653-17.651 16.977 0 9.297 7.896 16.95 17.651 16.95h16.222c9.755 0 17.651-7.653 17.651-16.95 0-9.378-7.923-16.977-17.651-16.977zM160.31 19.092h-16.169c-9.809 0-17.651 7.599-17.651 16.977 0 9.297 7.869 16.95 17.651 16.95h16.168c9.809 0 17.704-7.653 17.704-16.95 0.001-9.378-7.894-16.977-17.703-16.977zM228.056 19.092h-16.223c-9.755 0-17.651 7.599-17.651 16.977 0 9.297 7.896 16.95 17.651 16.95h16.222c9.755 0 17.651-7.653 17.651-16.95 0-9.378-7.895-16.977-17.65-16.977zM254.329 106.321h-212.237v315.527h212.237l-0.027-315.527zM221.885 290.048l-69.228 98.708c-4.312 6.117-5.929 6.117-10.24 0.054h-0.054l-72.192-103.047c-2.614-4.204-1.293-4.419 5.767-4.419h34.169c6.036 0 7.168-1.644 7.168-10.267v-122.853c0-1.725 1.401-3.126 3.126-3.126h53.464c1.725 0 3.126 1.401 3.126 3.126l0.162 122.853c0 8.677 1.024 10.267 7.087 10.267h34.789c8.946 0 8.784 0.269 2.856 8.704z" horiz-adv-x="296" />
<glyph unicode="&#xe006;" d="M143.333 226.641h19.537c8.515 0 15.656 7.545 15.899 17.031l3.449 129.805c0.323 12.207-7.491 22.259-17.381 22.259h-22.744c-9.917 0-17.758-10.051-17.489-22.232l2.91-129.805c0.163-9.486 7.304-17.058 15.819-17.058zM153.492 206.754c-15.198 0-27.459-13.339-27.459-29.777s12.261-29.723 27.459-29.723c15.144 0 27.405 13.285 27.405 29.723s-12.26 29.777-27.405 29.777zM256.781 480h-217.141c-24.954 0-45.218-17.597-45.218-39.451v-433.017c0-21.8 20.264-39.505 45.218-39.505h217.169c24.926 0 45.218 17.704 45.218 39.505l-0.001 433.017c-0.027 21.854-20.291 39.451-45.245 39.451zM91.055 19.146h-16.734c-9.997 0-18.163 7.653-18.163 16.95 0 9.324 8.165 16.95 18.163 16.95h16.734c9.997 0 18.163-7.599 18.163-16.95s-8.165-16.95-18.163-16.95zM160.687 19.146h-16.653c-10.105 0-18.163 7.599-18.163 16.95s8.057 16.95 18.163 16.95h16.627c10.105 0 18.216-7.599 18.216-16.95s-8.085-16.95-18.19-16.95zM230.4 19.146h-16.707c-9.997 0-18.163 7.599-18.163 16.95s8.165 16.95 18.163 16.95h16.734c9.997 0 18.163-7.599 18.163-16.95s-8.166-16.95-18.19-16.95zM257.455 106.375h-218.435v315.473h218.435l-0.027-315.473z" horiz-adv-x="296" />
<glyph unicode="&#xe007;" d="M253.709 480h-210.997c-24.226 0-43.925-17.597-43.925-39.451v-433.017c0-21.8 19.699-39.505 43.924-39.505h210.998c24.226 0 43.924 17.704 43.924 39.505l0.001 433.017c0 21.854-19.699 39.451-43.925 39.451zM92.645 19.146h-16.222c-9.755 0-17.651 7.653-17.651 16.95 0 9.324 7.896 16.95 17.651 16.95h16.222c9.755 0 17.651-7.599 17.651-16.95s-7.923-16.95-17.651-16.95zM160.31 19.146h-16.169c-9.809 0-17.651 7.599-17.651 16.95s7.869 16.95 17.651 16.95h16.168c9.809 0 17.704-7.599 17.704-16.95s-7.894-16.95-17.703-16.95zM228.056 19.146h-16.223c-9.755 0-17.651 7.599-17.651 16.95s7.896 16.95 17.651 16.95h16.222c9.755 0 17.651-7.599 17.651-16.95s-7.895-16.95-17.65-16.95zM254.329 106.375h-212.237v315.526h212.237l-0.027-315.526zM175.481 193.361c0-24.819 1.455-27.998 13.096-29.022l6.791-0.701c2.803-2.156 2.803-10.321-0.377-12.423-12.423 0.701-26.22 1.078-42.523 1.078-15.953 0-30.801-0.377-42.496-1.078-3.234 2.102-3.234 10.267-0.377 12.423l6.737 0.701c11.695 1.024 13.096 4.204 13.096 29.022l-0.027 53.463c0 14.174 0 18.405-6.737 22.663l-4.931 3.207c-2.533 2.102-2.533 8.515 0 10.617 16.627 4.635 41.768 14.174 52.386 20.561 2.856 0 4.958-1.078 6.413-3.18-0.727-10.644-1.051-26.193-1.051-42.172v-65.159zM178.284 353.536c0-17.031-13.096-25.896-26.597-25.896-15.549 0-24.765 10.671-24.765 25.196 0 15.603 12.423 25.843 26.597 25.843 14.848-0.001 24.765-10.996 24.765-25.143z" horiz-adv-x="296" />
<glyph unicode="&#xe008;" d="M187.784 253.937c19.456 0 35.268 15.782 35.268 35.268s-15.782 35.238-35.268 35.238-35.268-15.752-35.268-35.238c0-19.456 15.781-35.268 35.268-35.268zM324.247 253.937c19.486 0 35.298 15.782 35.298 35.268s-15.782 35.238-35.298 35.238c-19.456 0-35.208-15.721-35.208-35.238 0-19.456 15.721-35.268 35.208-35.268zM367.164 195.9c-0.030-0.060-0.060 0-0.060 0-30.389-24.606-69-39.364-111.074-39.364-42.104 0-80.745 14.788-111.074 39.304-0.060 0.060-0.060 0-0.090 0.060-2.319 1.898-7.258 0.091-7.078-4.758 6.475-59.573 56.892-105.954 118.242-105.954 61.229 0 111.676 46.321 118.182 105.924 0.18 4.879-4.759 6.716-7.048 4.788zM256 480c-141.372 0-256-114.628-256-256s114.628-256 256-256 256 114.628 256 256-114.598 256-256 256zM256 12.393c-116.917 0-211.667 94.78-211.667 211.637s94.78 211.637 211.667 211.637 211.667-94.78 211.667-211.637-94.75-211.637-211.667-211.637z" />
<glyph unicode="&#xe009;" d="M215.606 270.484c57.802 0 104.744 46.862 104.744 104.772 0 57.775-46.942 104.744-104.744 104.744-57.856 0-104.771-46.969-104.771-104.744 0-57.91 46.915-104.772 104.771-104.772zM340.992 216.536c-35.328 24.306-78.605 11.883-125.386 11.883-46.835 0-90.166 12.396-125.575-11.965-54.595-37.645-90.193-125.924-90.193-195.449 0-53.005 96.606-53.005 215.768-53.005s215.714 0 215.714 53.005c0 69.606-35.652 157.912-90.328 195.531z" horiz-adv-x="431" />
<glyph unicode="&#xe00a;" d="M90.078 284.962h-33.007c-31.539 0-57.071-27.341-57.071-60.962s25.532-60.962 57.071-60.962h33.007c31.471 0 57.071 27.341 57.071 60.962 0.034 33.621-25.6 60.962-57.071 60.962zM90.078 487.1h-33.007c-31.539 0-57.071-27.205-57.071-60.894s25.532-60.962 57.071-60.962h33.007c31.471 0 57.071 27.273 57.071 60.962 0.034 33.553-25.6 60.894-57.071 60.894zM455.987 365.278h33.007c31.539 0 57.139 27.273 57.139 60.962 0 33.519-25.6 60.86-57.139 60.86h-33.007c-31.539 0-57.003-27.341-57.003-60.894-0.034-33.621 25.464-60.928 57.003-60.928zM90.078 82.688h-33.007c-31.539 0-57.071-27.341-57.071-60.962 0-33.553 25.532-60.826 57.071-60.826h33.007c31.471 0 57.071 27.136 57.071 60.826s-25.6 60.962-57.071 60.962zM289.519 284.962h-32.939c-31.607 0-57.071-27.341-57.071-61.030 0-33.621 25.463-60.962 57.071-60.962h32.939c31.539 0 57.071 27.341 57.071 60.962 0 33.689-25.566 61.030-57.071 61.030zM488.994 82.688h-33.007c-31.539 0-57.003-27.273-57.003-60.962s25.463-60.826 57.003-60.826h33.007c31.539 0 57.139 27.136 57.139 60.826s-25.6 60.962-57.139 60.962zM488.994 284.962h-33.007c-31.539 0-57.003-27.341-57.003-61.030 0-33.621 25.463-60.962 57.003-60.962h33.007c31.539 0 57.139 27.341 57.139 60.962 0 33.689-25.6 61.030-57.139 61.030zM289.519 487.1h-32.939c-31.607 0-57.071-27.341-57.071-60.894 0-33.655 25.463-60.962 57.071-60.962h32.939c31.539 0 57.071 27.273 57.071 60.962 0 33.553-25.566 60.894-57.071 60.894zM289.519 82.688h-32.939c-31.607 0-57.071-27.273-57.071-60.962s25.463-60.826 57.071-60.826h32.939c31.539 0 57.071 27.136 57.071 60.826s-25.566 60.962-57.071 60.962z" horiz-adv-x="546" />
<glyph unicode="&#xe00b;" d="M459.776 480h-379.904c-6.048 0-10.944-4.896-10.944-10.912v-32.288h-44.224c-8.48 0-15.36-10.048-15.36-22.432 0-12.416 6.88-22.496 15.36-22.496h44.224v-49.792h-44.224c-8.48 0-15.36-10.048-15.36-22.496 0-12.384 6.88-22.432 15.36-22.432h44.224v-49.792h-44.224c-8.48 0-15.36-10.080-15.36-22.496 0-12.384 6.88-22.432 15.36-22.432h44.224v-49.76h-44.224c-8.48 0-15.36-10.080-15.36-22.496s6.88-22.496 15.36-22.496h44.224v-49.728h-44.224c-8.48 0-15.36-10.112-15.36-22.496s6.88-22.464 15.36-22.464h44.224v-34.016c0-6.016 4.864-10.944 10.88-10.944h379.936c6.016 0 10.88 4.928 10.88 10.944l0.032 490.112c0.032 6.048-4.864 10.912-10.88 10.912z" horiz-adv-x="480" />
<glyph unicode="&#xe00c;" d="M408.275 320.527c0 88.365-91.467 159.804-204.137 159.804-112.791-0.030-204.138-71.439-204.138-159.804 0-37.135 16.535-71.138 43.791-98.214 8.553-8.041 11.354-11.776 6.114-22.92 0 0-48.941-104.719-49.694-106.315-0.723-1.656 1.566-3.403 3.554-2.289 0.964 0.542 112.489 79.39 112.489 79.39 7.62 3.313 15.27 1.897 25.6-1.416l0.030 0.060c19.486-5.572 38.28-8.041 62.223-8.041 112.701-0.029 204.168 71.561 204.168 159.745zM530.703 488.011h-174.743c-12.469 0-23.522-5.512-31.202-14.065 24.606-12.017 46.050-27.558 63.337-45.869h143.24v-226.153h-151.492c-18.281-17.197-40.418-31.684-65.476-42.496v-158.72c0-22.408 18.673-40.689 41.562-40.689h174.743c22.95 0 41.532 18.251 41.532 40.689l0.001 446.554c0.030 22.528-18.552 40.749-41.502 40.749zM386.952 12.815h-15.36c-9.216 0-16.745 7.8-16.745 17.438s7.529 17.498 16.745 17.498h15.36c9.246 0 16.745-7.861 16.745-17.498s-7.529-17.438-16.745-17.438zM386.952 70.792h-15.36c-9.216 0-16.745 7.831-16.745 17.438 0 9.668 7.529 17.528 16.745 17.528h15.36c9.246 0 16.745-7.861 16.745-17.528-0.030-9.668-7.529-17.438-16.745-17.438zM386.952 128.738h-15.36c-9.216 0-16.745 7.831-16.745 17.498 0 9.608 7.529 17.468 16.745 17.468h15.36c9.246 0 16.745-7.861 16.745-17.468-0.030-9.698-7.529-17.498-16.745-17.498zM450.982 12.815h-15.33c-9.246 0-16.715 7.8-16.715 17.438s7.469 17.498 16.715 17.498h15.33c9.276 0 16.745-7.861 16.745-17.498s-7.469-17.438-16.745-17.438zM450.982 70.792h-15.33c-9.246 0-16.715 7.831-16.715 17.438 0 9.668 7.469 17.528 16.715 17.528h15.33c9.276 0 16.745-7.861 16.745-17.528-0.030-9.668-7.469-17.438-16.745-17.438zM450.982 128.738h-15.33c-9.246 0-16.715 7.831-16.715 17.498 0 9.608 7.469 17.468 16.715 17.468h15.33c9.276 0 16.745-7.861 16.745-17.468-0.030-9.698-7.469-17.498-16.745-17.498zM515.072 12.815h-15.39c-9.186 0-16.715 7.8-16.715 17.438s7.529 17.498 16.715 17.498h15.39c9.216 0 16.715-7.861 16.715-17.498s-7.469-17.438-16.715-17.438zM515.072 70.792h-15.39c-9.186 0-16.715 7.831-16.715 17.438 0 9.668 7.529 17.528 16.715 17.528h15.39c9.216 0 16.715-7.861 16.715-17.528 0-9.668-7.469-17.438-16.715-17.438zM515.072 128.738h-15.39c-9.186 0-16.715 7.831-16.715 17.498 0 9.608 7.529 17.468 16.715 17.468h15.39c9.216 0 16.715-7.861 16.715-17.468 0-9.698-7.469-17.498-16.715-17.498z" horiz-adv-x="572" />
<glyph unicode="&#xe00d;" d="M0.341-22.818c-0.956-2.082 2.116-4.301 4.813-2.935 1.297 0.683 150.46 101.888 150.46 101.888 10.138 4.301 20.378 2.458 34.202-1.843l0.068 0.137c26.044-7.202 51.098-10.342 83.183-10.342 150.733 0 273.033 91.853 273.033 205.039 0.033 113.287-122.266 205.071-272.999 205.071-150.87 0-273.101-91.784-273.101-205.039 0-47.684 22.084-91.375 58.607-126.054v0c11.503-10.274 15.189-15.121 8.192-29.491-0.034 0-65.502-134.315-66.458-136.431z" horiz-adv-x="546" />
<glyph unicode="&#xe00e;" d="M388.446 247.283l0.054 0.054c-21.962 4.204-38.804 23.040-39.451 46.242-0.593 23.256 15.171 43.008 36.891 48.344l-0.027 0.026c1.509 0.377 2.156 1.132 1.886 2.533-5.228 18.351-12.989 35.705-22.932 51.469-0.862 1.132-1.886 1.24-3.234 0.323l0.001 0.108c-18.459-12.611-43.709-11.237-60.605 4.77-16.842 15.953-19.537 41.122-7.949 60.227l-0.162-0.054c0.808 1.401 0.701 2.425-0.431 3.18-16.196 9.108-33.954 15.899-52.682 20.238-1.347 0.108-2.102-0.539-2.425-2.102l-0.028 0.027c-4.15-21.962-22.986-38.804-46.242-39.451-23.201-0.593-42.953 15.198-48.343 36.837-0.377 1.536-1.186 2.156-2.587 1.913-18.351-5.174-35.624-12.935-51.335-22.824-1.239-0.916-1.401-1.967-0.431-3.342h-0.054c12.531-18.459 11.184-43.708-4.796-60.55-16.034-16.87-41.122-19.591-60.174-8.031v-0.054c-1.401 0.863-2.425 0.701-3.233-0.431-9.109-16.303-15.926-34.007-20.13-52.682-0.216-1.347 0.485-2.156 1.94-2.479 21.908-4.204 38.858-23.094 39.451-46.296 0.647-23.309-15.171-43.062-36.837-48.424l0.054-0.054c-1.536-0.269-2.129-1.105-1.994-2.425 5.282-18.297 12.989-35.571 22.932-51.308 0.862-1.401 1.886-1.509 3.341-0.539v-0.054c18.405 12.584 43.655 11.237 60.551-4.716 16.896-16.007 19.537-41.122 8.057-60.227v0c-0.808-1.401-0.647-2.425 0.512-3.18 16.303-9.081 33.954-15.899 52.574-20.184 1.455-0.216 2.21 0.431 2.533 1.94 4.204 21.962 23.094 38.858 46.296 39.505 23.256 0.593 43.062-15.171 48.371-36.891l0.054 0.054c0.431-1.563 1.186-2.156 2.479-1.94 18.405 5.228 35.705 13.016 51.469 22.878 1.293 0.916 1.401 1.994 0.485 3.341h0.054c-12.584 18.459-11.237 43.709 4.716 60.551 16.195 17.139 41.822 19.645 60.982 7.491 0.916-0.269 1.644-0.054 2.317 0.862 9.135 16.357 15.953 34.169 20.264 52.898 0.055 1.349-0.592 2.157-2.182 2.427zM197.74 197.753c-50.553-1.347-92.753 38.562-94.154 89.196-1.348 50.607 38.534 92.753 89.195 94.1 50.634 1.401 92.753-38.535 94.154-89.115 1.375-50.634-38.615-92.806-89.195-94.181z" horiz-adv-x="565" />
<glyph unicode="&#xe00f;" d="M480.708 398.502l-26.624-26.504c55.296-55.356 55.296-144.685 0-199.981v0l26.564-26.564v0.060c70.174 69.723 70.174 183.025 0.060 252.989zM529.559 447.142l-26.624-26.504c82.221-82.342 82.221-215.16 0-297.321l26.624-26.564c97.129 96.617 97.069 253.5 0 350.389zM453.873 270.441c0 27.407-15.782 50.236-37.075 57.224v-0.361c-0.873 71.619 1.958 156.672-1.114 156.672-7.65 0-85.173-77.493-143.601-98.214-49.845-17.649-169.653-30.66-243.863-30.66-17.619 0-28.22-11.023-28.22-22.739v-109.026c0-10.541 49.724-24.907 73.367-24.907 1.175 0 2.108-0.060 3.283-0.060 0 0-56.2-130.68-50.989-220.521 0 0 3.313-13.854 10.481-13.854h81.86c4.427 0 12.137 0.602 15.24 4.608 1.897 2.47 0.331 9.246 0.331 9.246-14.276 63.217 18.071 206.065 18.071 206.065 35.81-2.65 87.341-5.542 120.41-17.649 72.403-26.624 133.451-98.274 143.601-98.274 4.036 0 0.934 74.3 1.416 145.498 21.171 6.987 36.802 29.726 36.802 56.952z" horiz-adv-x="602" />
<glyph unicode="&#xe010;" d="M241.778 480c-137.302-0.057-248.718-92.956-248.718-207.445 0-87.41 63.687-154.027 135.822-184.519 0-26.652-14.194-83.513-34.645-112.754-21.276-30.492 82.859 41.188 131.698 90.596 5.291-0.284 10.468-0.597 15.844-0.597 137.358 0 248.718 92.786 248.718 207.275 0.027 114.544-111.361 207.444-248.719 207.444zM236.516 135.168c-20.651 0-37.461 14.791-37.461 33.081s16.81 32.967 37.461 32.967c20.508 0 37.348-14.734 37.348-33.024s-16.84-33.024-37.348-33.024zM270.933 249.486c-0.341-10.581-10.012-19.001-21.646-19.001h-26.624c-11.634 0-21.276 8.391-21.561 18.972l-3.925 144.356c-0.398 13.483 10.24 24.719 23.779 24.719h31.033c13.454 0 24.007-11.236 23.637-24.747l-4.693-144.299z" horiz-adv-x="483" />
<glyph unicode="&#xe011;" d="M532.281 38.258l-227.954 429.369c-18.603 20.167-48.697 20.167-67.328 0l-227.954-429.369c-21.76-32.711-1.792-73.387 33.593-72.988 27.62 0.284 434.261 0.967 456.021 0 36.495-1.65 52.907 40.277 33.622 72.988zM429.397 17.778c-15.189 0.626-298.155 0.171-317.383 0-24.604-0.284-38.485 28.046-23.381 50.773l158.663 298.695c12.942 14.052 33.934 14.052 46.848 0l158.635-298.695c13.397-22.699 1.962-51.911-23.382-50.773zM259.925 128.37h20.366c8.818 0 16.27 7.851 16.498 17.692l3.584 134.969c0.341 12.715-7.765 23.125-18.091 23.125l-23.637 0.029c-10.297 0-18.46-10.468-18.204-23.125l3.044-134.969c0.17-9.871 7.566-17.721 16.44-17.721zM270.478 107.691c-15.787 0-28.558-13.881-28.558-30.948 0-17.010 12.772-30.834 28.558-30.834 15.73 0 28.501 13.824 28.501 30.834 0.001 17.067-12.743 30.948-28.501 30.948z" horiz-adv-x="540" />
<glyph unicode="&#xe012;" d="M497.892 88.064l-21.333 21.333c-68.437 68.437-163.897 254.094-163.897 308.366l-0.001 22.13c0 22.159-17.948 40.107-40.106 40.107h-33.11c-22.158 0-40.135-17.948-40.135-40.107v-22.101c0-105.984-125.895-270.45-160.825-305.351l-24.292-24.348c-15.673-15.673-15.673-41.074 0-56.718l23.438-23.495c15.616-15.616 41.017-15.616 56.718 0l19.2 19.257c0 0 0.171 0.114 0.228 0.284l13.426 13.369c-1.792-4.096-3.072-8.476-3.356-13.483 1.337-23.836 21.333-36.068 44.487-45.17 23.979-8.903 55.438-14.080 90.254-14.137 34.645 0.057 66.076 5.234 90.084 14.137 23.097 9.074 43.122 21.333 44.43 45.17-0.114 1.963-0.569 3.812-0.939 5.66 0.939-0.825 2.076-1.593 2.958-2.475l22.613-22.613c15.673-15.616 41.017-15.616 56.718 0l23.495 23.495c15.561 15.616 15.561 41.017-0.055 56.69zM338.716 8.505c-19.627-7.367-48.412-12.345-80.185-12.288-31.915-0.057-60.7 4.892-80.356 12.288-20.565 7.31-26.738 17.436-26.254 18.802-0.512 1.422 5.66 11.548 26.254 18.745 19.627 7.424 48.469 12.373 80.356 12.373v-0.057c31.801 0.057 60.53-4.892 80.185-12.288 20.537-7.253 26.681-17.38 26.197-18.802 0.484-1.365-5.688-11.463-26.197-18.773zM256 286.18c42.126-0.057 76.345-34.219 76.402-76.459h-0.057c0-42.183-34.219-76.345-76.345-76.402-42.183 0.057-76.402 34.219-76.402 76.402 0 42.24 34.219 76.402 76.402 76.459z" />
<glyph unicode="&#xe013;" d="M507.571 229.018l-95.59 67.021c-8.141 5.734-8.448 5.862-8.448-2.765v-33.69c0-5.837-1.562-6.886-9.907-6.886l-108.954-0.026 0.026 108.954c0 8.371 1.050 9.933 6.886 9.933h33.69c8.653 0 8.499 0.282 2.765 8.422l-67.021 95.59c-4.173 5.939-5.786 5.939-9.958 0.051l-0.001-0.025-69.888-99.763c-2.534-4.070-1.254-4.301 5.53-4.301h33.152c5.837 0 6.886-1.587 6.886-9.933v-108.954l-108.339 0.052c-8.397 0-9.958 1.050-9.958 6.886l0.025 33.69c0 8.653-0.256 8.499-8.397 2.765l-95.642-67.021c-5.914-4.173-5.914-5.786-0.051-9.958v-0.051l99.814-69.914c4.070-2.534 4.275-1.254 4.275 5.581v33.101c0 5.837 1.613 6.912 9.958 6.912h108.314v-108.339c0-8.346-1.101-9.907-6.886-9.907l-33.202 0.024c-6.758 0-8.090-0.256-5.53-4.326l69.914-99.763h0.051c4.173-5.862 5.786-5.862 9.958 0.051l67.021 95.59c5.734 8.141 5.862 8.448-2.765 8.448h-33.69c-5.862 0-6.886 1.51-6.886 9.907v108.339h108.954c8.346 0 9.907-1.101 9.907-6.912v-33.101c0-6.81 0.256-8.090 4.326-5.581l99.763 69.965c5.812 4.174 5.812 5.761-0.102 9.934z" />
<glyph unicode="&#xe014;" d="M141.909 176.356v94.634c0 13.056-10.553 23.637-23.637 23.637l-94.606 0.001c-13.056 0.028-23.666-10.553-23.666-23.638v-94.635c0-13.028 10.61-23.637 23.666-23.637h94.606c13.084 0.029 23.637 10.638 23.637 23.638zM303.616 480h-94.606c-13.056 0-23.638-10.61-23.638-23.637v-94.635c0-13.028 10.61-23.637 23.637-23.637h94.606c13.084 0 23.666 10.61 23.666 23.637l0.001 94.635c0 13.027-10.61 23.637-23.666 23.637zM303.616 109.938h-94.606c-13.028 0-23.637-10.61-23.637-23.637v-94.635c0-13.028 10.61-23.637 23.637-23.637h94.606c13.084 0 23.666 10.61 23.666 23.637v94.635c0 13.027-10.61 23.637-23.666 23.637zM134.343 118.414h-57.685c-7.993 0-14.421-6.457-14.421-14.421v-57.714c0-7.936 6.428-14.421 14.421-14.421h57.685c7.993 0 14.421 6.457 14.421 14.421v57.714c0 7.936-6.4 14.421-14.421 14.421zM430.108 118.414h-57.685c-7.936 0-14.421-6.457-14.421-14.421v-57.714c0-7.936 6.485-14.421 14.421-14.421h57.685c7.993 0 14.421 6.457 14.421 14.421v57.714c0.029 7.936-6.428 14.421-14.421 14.421zM134.343 415.488h-57.685c-7.993 0-14.421-6.457-14.421-14.421v-57.714c0-7.936 6.428-14.421 14.421-14.421h57.685c7.993 0 14.421 6.457 14.421 14.421v57.685c0 7.993-6.4 14.45-14.421 14.45zM372.423 328.932h57.685c7.993 0 14.421 6.457 14.421 14.421l0.001 57.685c0 7.964-6.428 14.421-14.421 14.421h-57.685c-7.936 0-14.421-6.457-14.421-14.421v-57.714c-0.001-7.936 6.456-14.392 14.42-14.392zM488.334 294.656h-94.606c-13.084 0-23.666-10.61-23.666-23.637v-94.635c0-13.028 10.61-23.637 23.666-23.637h94.606c13.084 0 23.666 10.61 23.666 23.637v94.606c0 13.085-10.61 23.666-23.666 23.666z" />
<glyph unicode="&#xe015;" d="M286.151 124.188l-18.347 18.375 55.41 55.41-23.438 23.41-55.41-55.41-46.421 46.393 55.41 55.41-23.353 23.41-55.467-55.41-18.347 18.375c-3.84 3.84-7.367 6.429-11.207 2.645l-64.996-64.996c-0.512-0.54-0.91-1.081-1.308-1.678-30.521-33.621-34.503-82.631-12.032-120.292l-63.915-63.915c-3.783-3.783-3.783-10.041 0.114-13.909l21.106-21.106c3.84-3.84 10.041-3.897 13.909-0.114l63.915 63.972c37.632-22.556 86.67-18.546 120.263 11.975 0.626 0.398 1.195 0.796 1.735 1.365l64.996 64.967c3.812 3.728 1.223 7.312-2.617 11.123zM445.867 270.421c30.521 33.621 34.446 82.66 12.032 120.292l51.314 51.314c3.84 3.812 3.783 10.041-0.057 13.909l-21.106 21.077c-3.897 3.868-10.098 3.954-13.909 0.114l-51.457-51.314c-37.632 22.528-86.67 18.546-120.263-12.004-0.569-0.37-1.195-0.796-1.678-1.308l-64.853-64.853c-3.783-3.783-1.308-7.481 2.56-11.292l129.934-129.934c3.783-3.783 7.481-6.315 11.292-2.475l64.825 64.825c0.512 0.483 0.967 1.080 1.366 1.649z" />
<glyph unicode="&#xe016;" d="M571.173 311.077h-557.239c-11.301 0-14.811-2.158-13.787-13.568l33.17-319.963c1.097-9.399 2.779-11.227 13.422-11.227h491.666c11.593 0 12.507 2.158 13.787 14.080l32.731 316.489c1.244 12.031-2.084 14.189-13.75 14.189zM553.728 409.783c0 11.959-2.158 14.153-13.787 14.153h-327.132c-7.095 0-9.911 1.317-12.69 4.791l-6.181 9.216-0.073 0.146-19.639 29.44c0 0.073-0.073 0.073-0.073 0.073l-5.23 7.827c-3.072 4.096-6.436 6.253-14.006 6.253h-110.41c-11.593 0-13.75-2.231-13.75-14.153v-104.704h522.935l-0.001 46.958zM392.082 120.905l-92.599-95.342c-5.851-5.925-8.009-5.925-13.824 0l-96.622 99.438c-3.547 4.096-1.755 4.315 7.717 4.315h43.301c8.082 0 9.618 1.536 9.618 9.874v103.352c0 8.338 1.463 9.874 9.618 9.874h68.242c8.082 0 9.618-1.536 9.618-9.874v-103.314c-0.109-8.339 1.427-9.875 9.436-9.875h41.618c11.923 0 11.777-0.292 3.877-8.448z" horiz-adv-x="585" />
<glyph unicode="&#xe017;" d="M244.608 473.344c-38.221 9.318-50.995 1.894-50.995 1.894s-9.575 9.293-28.647 1.818c-19.149-7.424-63.77-52.198-58.982-93.158 4.787-41.011 12.774-93.261 15.949-83.891 3.149 9.318 0 63.411 4.787 78.31 3.789 11.878 36.685 33.357 49.894 41.574 2.56 1.562 6.016 3.2 7.936 1.203v-0.051c10.317-8.986 49.894-42.522 66.458-40.832 11.52 1.101 19.558 1.562 24.064 1.69 1.562 0 3.098-0.742 2.893-2.304l-3.149-23.117c0 0 0-28.262 0-60.621s-4.915-49.587-7.936-55.962c-10.778-23.168-29.030-35.942-47.795-39.885-11.981-2.509-25.267-0.358-32.051 0.256-2.944 0.307-3.507-0.691-0.998-2.406 4.531-3.302 12.954-9.933 26.726-12.851 16.589-3.661 39.373-4.429 51.942 16.205 14.387 23.782 23.962 101.504 23.962 101.504 11.034 22.016 16.461 47.642 14.899 69.99-1.613 22.349-20.711 91.316-58.957 100.634zM246.554 126.515c-10.47-10.317-23.424-18.099-38.861-18.099-34.406 0-53.888 35.098-61.466 52.352-3.251 8.218-5.274 9.037-13.747 6.912-29.568-7.27-114.227-28.032-124.774-31.309-2.228-0.691-4.864-3.968-7.706-8.909v-86.502h268.314c-13.85 23.962-21.914 51.686-21.914 81.357-0.051 1.408 0.154 2.816 0.154 4.198zM492.621 98.406h-59.776v-59.776h-47.847v59.776h-59.724v47.796h59.724v59.827h47.847v-59.827h59.776z" horiz-adv-x="563" />
<glyph unicode="&#xe018;" d="M228.568 141.11c-16.007 44.679-22.394 122.772-22.394 180.197 0 27.055-11.803 45.595-24.28 57.694 3.099 2.614 6.656 4.635 10.671 6.036 32.714 11.749 63.542-31.69 69.389-73.459 0 0 0.916-10.294 0.916-10.536 3.476-104.205 55.889-198.413 55.889-198.413 0-2.829-0.162-5.982-0.458-9.243h47.185c-13.635 25.519-72.866 118.272-77.231 222.747 0 0.216-1.374 11.911-1.374 11.911-7.060 40.286-38.103 72.219-77.823 80.842v57.182c0 7.68-6.252 13.932-14.013 13.932h-14.767c-7.734 0-13.986-6.252-13.986-13.932v-57.182c-39.72-8.596-70.764-40.556-77.878-80.842 0 0-1.644-18.163-1.644-18.351-5.767-114.661-62.518-192.566-76.611-216.28h239.32c-4.824 12.611-13.42 26.597-20.911 47.697zM315.123 73.768c-3.368-13.878-8.596-25.681-14.498-25.681l-56.132-0.026c5.955 9.971 8.435 18.055 8.758 25.681l-245.005 0.026c3.315-21.989 13.177-47.293 24.819-47.293l127.407-0.026c-2.883-5.848-4.635-12.611-4.635-19.941 0-21.261 14.255-38.535 31.852-38.535s31.852 17.246 31.852 38.535c0 7.33-1.725 14.093-4.635 19.941h127.407c11.641 0 21.504 25.357 24.819 47.293l-52.009 0.026zM197.794-3.705c-7.168 0-13.016 8.192-13.016 18.27 0 2.937 0.539 5.713 1.428 8.192h23.148c0.916-2.506 1.428-5.228 1.428-8.192-0.027-10.105-5.793-18.27-12.988-18.27z" horiz-adv-x="377" />
<glyph unicode="&#xe019;" d="M588.8 482.765h-402.364c-15.121-0.205-25.6-12.834-25.6-26.454v-240.708l-135.236 0.034c-15.155-0.204-25.6-12.834-25.6-26.487v-197.564c0-13.653 10.445-26.249 25.6-26.385h274.159c15.189 0.205 25.532 12.766 25.532 26.385h0.068v112.538l263.407-0.034c15.189 0.273 25.6 12.834 25.6 26.453l0.034 325.768c0 13.62-10.445 26.249-25.6 26.454zM293.513-2.987l-261.666 0.068-0.001 186.676 261.734-0.034-0.067-186.71zM582.622 135.97h-257.229v32.29l60.177 60.177c6.451 6.485 8.465 6.827 12.971 2.321l25.6-25.566c5.222-5.222 6.383-6.11 7.543-0.99l23.074 131.14c1.297 7.714 0.068 8.977-7.782 7.612l-125.611-22.084c-10.649-1.877-10.888-1.979-4.266-8.635l26.044-26.010c4.54-4.54 4.13-6.519-2.321-13.005l-57.618-57.685-90.555 0.034v235.384l389.973-0.068v-314.915z" horiz-adv-x="614" />
<glyph unicode="&#xe01a;" d="M93.233 319.939c-0.001-0.058-0.001-0.127-0.001-0.196 0-21.262 17.236-38.498 38.498-38.498 21.055 0 38.162 16.902 38.493 37.879 0.005 0.874 0.005 0.943 0.005 1.012 0 21.262-17.236 38.498-38.498 38.498-21.055 0-38.162-16.902-38.493-37.879zM228.547 480h-188.928c-22.43 0-40.716-17.14-40.716-38.278v-298.155c0-21.236 18.286-38.327 40.741-38.302l19.553 0.024c0-15.848 0-35.474 0-41.496 0-4.413 8.606-6.997 18.578-7.851v-87.893h11.971v87.771c9.972 0.683 18.578 3.194 18.578 7.973 0 4.072 0 24.82 0 41.496h120.247c22.455 0 40.741 17.115 40.741 38.302v298.131c0 21.138-18.286 38.278-40.765 38.278zM54.516 150.004c-6.583 0-11.971 5.339-11.971 11.947 0 6.583 5.364 11.922 11.971 11.922 6.558 0 11.922-5.339 11.922-11.922-0.024-6.632-5.364-11.947-11.922-11.947zM131.73 214.491c-58.246 0-105.423 47.202-105.423 105.423 0 58.27 47.202 105.448 105.423 105.448s105.423-47.202 105.423-105.448c0.001-58.245-47.201-105.423-105.423-105.423z" horiz-adv-x="268" />
<glyph unicode="&#xe01b;" d="M308.935 480h-248.035c-29.497 0-53.533-22.471-53.533-50.29v-411.42c0-27.762 24.036-50.261 53.532-50.261h248.036c29.497 0 53.476 22.5 53.476 50.261l0.028 411.42c0 27.876-23.979 50.318-53.504 50.29zM111.189 33.166h-19.825c-11.861 0-21.476 9.671-21.476 21.561 0 11.918 9.643 21.589 21.476 21.589h19.854c11.861 0 21.476-9.671 21.476-21.589s-9.643-21.561-21.505-21.561zM111.189 104.732h-19.825c-11.861 0-21.476 9.728-21.476 21.589 0 11.918 9.643 21.646 21.476 21.646h19.854c11.861 0 21.476-9.7 21.476-21.646-0.001-11.861-9.643-21.589-21.505-21.589zM111.189 176.412h-19.825c-11.861 0-21.476 9.643-21.476 21.589 0 11.89 9.643 21.532 21.476 21.532h19.854c11.861 0 21.476-9.643 21.476-21.532-0.001-11.974-9.643-21.589-21.505-21.589zM193.65 33.195h-19.741c-11.918 0-21.532 9.643-21.532 21.532s9.643 21.589 21.532 21.589h19.74c11.918 0 21.532-9.671 21.532-21.589s-9.641-21.532-21.531-21.532zM193.65 104.732h-19.741c-11.918 0-21.532 9.728-21.532 21.589 0 11.918 9.643 21.646 21.532 21.646h19.74c11.918 0 21.532-9.7 21.532-21.646 0.001-11.861-9.641-21.589-21.531-21.589zM193.65 176.412h-19.741c-11.918 0-21.532 9.643-21.532 21.589 0 11.89 9.643 21.561 21.532 21.561h19.74c11.918 0 21.532-9.671 21.532-21.561 0.001-11.974-9.641-21.589-21.531-21.589zM276.139 33.195h-19.712c-11.918 0-21.532 9.643-21.532 21.532s9.643 21.589 21.532 21.589h19.74c11.918 0 21.532-9.671 21.532-21.589s-9.642-21.532-21.56-21.532zM276.139 104.732h-19.712c-11.918 0-21.532 9.728-21.532 21.589 0 11.918 9.643 21.646 21.532 21.646h19.74c11.918 0 21.532-9.7 21.532-21.646-0.028-11.861-9.642-21.589-21.56-21.589zM276.139 176.412h-19.712c-11.918 0-21.532 9.643-21.532 21.589 0 11.89 9.643 21.561 21.532 21.561h19.74c11.918 0 21.532-9.671 21.532-21.561-0.028-11.974-9.642-21.589-21.56-21.589zM60.103 339.541v80.299h248.86v-80.299h-248.86z" horiz-adv-x="369" />
<glyph unicode="&#xe01c;" d="M224.582-32.14c-1.117 0-2.281 0.093-3.398 0.093-19.921 0.977-38.447 10.519-50.688 26.298l-155.927 199.308c-23.32 29.882-18.106 73.123 11.822 96.489 29.789 23.459 73.030 18.153 96.396-11.823l107.008-136.751 303.476 317.393c26.252 27.555 69.772 28.439 97.094 2.234 27.462-26.205 28.393-69.679 2.188-97.14l-358.307-374.737c-12.94-13.637-30.906-21.364-49.664-21.364z" horiz-adv-x="651" />
<glyph unicode="&#xe01d;" d="M208.064 480c-95.232 0-197.472-23.488-202.912-74.784h-0.352l6.368-339.36c0-46.208 84.192-97.856 196.896-97.856 110.912 0 196.896 52.512 196.896 97.6l6.24 335.296c0 54.336-105.312 79.104-203.136 79.104zM208.064 121.536c-103.008 0-161.92 39.296-164.832 56.32l-1.216 64.096c38.24-25.344 100.704-40.864 166.048-40.864 65.376 0 127.872 15.488 166.048 40.864l-1.152-64.128c-2.944-17.024-61.824-56.288-164.896-56.288zM208.064 235.232c-103.264 0-163.424 39.008-166.944 56.096l-1.216 62.784c36-20.064 99.2-32.32 168.16-32.32s132.096 12.256 168.16 32.352l-1.216-62.784c-3.328-17.056-63.392-56.128-166.944-56.128zM208.064 355.872c-104.768 0-168.96 29.152-169.024 45.024 0.064 15.872 64.224 44.96 169.024 44.96 104.8 0 169.024-29.088 169.024-44.96-0.064-15.872-64.256-45.024-169.024-45.024zM44.128 128.064c37.888-25.216 99.552-40.64 163.936-40.64 64.448 0 126.080 15.424 163.904 40.64l-1.12-62.208c0-18.912-63.168-63.776-162.784-63.776-99.616 0-162.752 45.024-162.752 64.064l-1.184 61.92z" horiz-adv-x="416" />
<glyph unicode="&#xe01e;" d="M621.641 454.473c0 10.862-6.254 14.702-13.641 8.302-0.256-0.219-0.475-0.256-0.695-0.439-9.472-8.338-72.814-56.613-82.286-62.83-66.926-43.593-133.413-31.854-200.558 35.255-79.982 79.945-175.799 81.115-256.329 3.95-3.657-3.913-4.242-8.156-4.242-15.726v-73.070c0-10.825 6.254-14.702 13.714-8.302 0.146 0.11 0.219 0.146 0.366 0.219 78.409 68.097 169.838 63.782 246.565-12.945 65.938-65.975 131.328-78.336 197.083-37.266 14.227 8.886 82.396 61.293 96.695 75.154 2.853 3.657 3.328 7.79 3.328 14.665 0 0.11 0.073 0.183 0.073 0.329v72.777l-0.073-0.073zM608 147.163c-0.256-0.219-0.475-0.256-0.695-0.439-9.472-8.338-72.814-56.649-82.286-62.83-66.926-43.593-133.413-31.89-200.558 35.255-79.982 79.945-175.799 81.152-256.329 3.913-3.694-3.913-4.279-8.192-4.279-15.762v-73.070c0-10.862 6.254-14.702 13.714-8.338 0.146 0.146 0.219 0.146 0.366 0.256 78.409 68.023 169.801 63.744 246.565-12.983 65.938-65.938 131.328-78.299 197.083-37.23 14.263 8.85 82.432 61.33 96.658 75.154 2.853 3.694 3.328 7.79 3.328 14.665 0 0.146 0.073 0.219 0.073 0.329l0.038 72.852-0.073-0.073c0.036 10.825-6.218 14.738-13.605 8.301zM193.938 229.157c44.873 0.11 89.819-20.224 130.597-61.001 80.238-80.238 159.634-81.189 239.835-3.182 2.853 3.657 3.328 7.79 3.328 14.629 0 0.146 0.073 0.219 0.073 0.329v72.85l-0.073-0.073c0 10.862-6.254 14.702-13.678 8.338-0.256-0.256-0.439-0.293-0.658-0.475-76.507-67.511-152.32-63.013-228.827 13.531-40.009 39.973-83.968 60.233-127.963 60.891-33.755 0.512-67.547-10.533-99.584-33.097-9.765-6.912-83.31-55.588-92.709-64.622-3.657-3.949-4.279-8.192-4.279-15.798v-73.070c0-10.825 6.254-14.665 13.641-8.265 0.146 0.11 0.256 0.146 0.402 0.219 6.546 5.669 77.093 51.639 83.822 56.283 30.976 21.614 63.525 32.439 96.073 32.513z" horiz-adv-x="621" />
<glyph unicode="&#xe01f;" d="M255.972 480c-141.142 0-255.972-114.859-255.972-256s114.83-256 255.972-256c141.17 0 256 114.859 256 256s-114.831 256-256 256zM255.972-12.316c-130.304 0-236.316 106.012-236.316 236.316s106.012 236.316 236.316 236.316c130.332 0 236.345-106.012 236.345-236.316s-106.013-236.316-236.345-236.316zM255.972 300.316c-42.155 0-76.288-34.162-76.288-76.288s34.162-76.288 76.288-76.288c42.183 0 76.288 34.133 76.288 76.288s-34.134 76.288-76.288 76.288zM255.972 179.484c-24.576 0-44.487 19.94-44.487 44.487 0 24.604 19.94 44.487 44.487 44.487s44.487-19.911 44.487-44.487c0.028-24.547-19.911-44.487-44.487-44.487zM150.926 224c0 58.027 47.047 105.074 105.045 105.074 17.323 0 33.621-4.267 48.014-11.719l49.579 96.654c-29.269 15.047-62.436 23.637-97.564 23.637-117.959 0-213.618-95.659-213.618-213.646 0-13.369 1.308-26.482 3.669-39.196l106.695 20.196c-1.166 6.172-1.82 12.515-1.82 19zM331.463 296.988l77.71 75.861c-5.404 5.547-11.036 10.809-17.010 15.758l-69.006-83.825c2.902-2.446 5.689-5.091 8.306-7.794zM465.778 264.249l-106.695-20.196c1.28-6.485 1.963-13.17 1.963-20.025 0-58.027-47.047-105.045-105.074-105.045-17.237 0-33.451 4.21-47.815 11.577l-49.579-96.626c29.184-15.019 62.293-23.524 97.365-23.524 117.959 0 213.618 95.63 213.618 213.618 0.057 13.711-1.309 27.136-3.783 40.221zM181.191 150.244l-77.682-75.833c5.404-5.518 11.093-10.752 17.095-15.673l69.035 83.797c-2.958 2.446-5.774 5.006-8.448 7.709z" />
<glyph unicode="&#xe020;" d="M137.186 131.659c15.812 1.687 39.183 10.27 47.646 13.493 1.506 0.602 3.313 1.958 3.915 3.494 3.674 11.023 5.451 23.944 6.144 30.479 0.271 2.53-0.482 4.789-1.837 6.144-6.776 5.963-27.196 24.907-32.979 38.129-5.873 13.703-8.945 79.028-9.728 97.069v0c-0.030 0.361-0.030 0.723-0.030 1.054 0.030 1.355 0.512 3.614 3.163 4.277v0c8.855 2.078 33.641 9.608 47.736 30.63v-0.060c1.144 1.807 3.825 5.843 3.554 3.192v-0.060c-0.904-9.608-3.403-35.118-3.674-37.708-0.302-3.253 1.475-3.132 3.343-0.783 1.777 2.138 58.97 73.126 69.21 85.835 0.934 1.114 1.717 1.837 2.982 0.964 7.861-5.542 49.363-37.496 58.669-96.949 5.933 11.144 14.728 18.281 24.877 18.281 18.342 0 32.678-22.648 32.678-51.531 0-28.943-14.366-51.531-32.678-51.531-10.029 0-18.703 6.837-24.666 17.769-2.47-13.312-6.054-22.317-8.343-26.985-13.041-14.607-52.676-57.224-73.096-58.398-13.794-0.783-23.582 2.65-29.666 5.481-1.144 0.572-1.506-0.060-0.452-0.904 10.601-8.433 31.864-22.95 48.55-19.998 7.8 1.416 30.63 7.71 44.785 18.281 1.175 0.783 2.199 0.602 2.289-0.994l0.602-9.969c0 0 0-0.12 0-0.181l0.030-0.301c0.090-0.663 0.361-2.078 1.747-2.59l39.966-13.824c0 0 4.307-0.994 6.957 2.078 8.975 9.608 32.346 42.345 31.443 121.525-1.506 124.777-42.195 163.057-71.288 192.843s-98.846 24.124-141.011 11.354c-42.224-12.768-56.711-72.371-64-110.65s4.156-127.247-20.39-156.702c-16.384-19.637-35.84-24.064-42.647-24.998-1.837-0.331-1.867-1.114-0.723-2.711 6.597-8.794 32.92-39.153 76.922-34.545zM511.398-11.58c-4.759 19.998-15.33 59.302-29.214 73.788-18.884 19.878-106.797 42.376-118.483 46.652-7.017 2.59-20.841 7.078-30.6 10.27-9.156 2.921-11.535 2.59-15.3-6.686-12.68-28.823-49.965-109.387-70.234-110.562-20.57-1.175-54.152 78.547-64.934 105.562-2.68 6.234-4.819 7.981-9.367 7.258-24.516-6.475-118.152-31.322-130.801-34.967-11.415-3.373-33.039-64.753-41.894-91.287-2.259-10.21 1.837-12.077 12.017-12.077h486.671c10.271 0.032 14.367 1.899 12.139 12.049zM360.177 237.372c11.836 0 21.835 18.402 21.835 40.177 0 21.745-10.029 40.147-21.835 40.147-10.963 0-20.269-15.842-21.564-35.509 0.151-4.126 0.241-8.041 0.151-11.746 1.867-18.492 10.902-33.069 21.413-33.069zM244.254 224.663c8.162 2.199 16.143 0.602 20.992-3.494 49.513 13.553 107.068 57.796 108.152 58.549l6.174-8.614c-4.397-3.132-58.85-45.056-109.598-59.573-0.060-7.589-7.047-15.179-17.227-18.010-11.625-3.132-22.919 1.295-25.268 9.848-2.319 8.614 5.21 18.161 16.775 21.294z" />
<glyph unicode="&#xe021;" d="M479.776 305.664h28.352l35.872 89.92-365.856 79.072-41.888-78.208 361.76-39.136-18.24-51.648zM46.432 305.472l401.408 0.448 10.784 34.24-399.136 45.184-16.192-79.872h3.136zM509.184 271.072h-496.736c-10.112 0-13.216-1.888-12.288-11.68l29.504-276.32c1.024-8.128 2.528-9.728 11.968-9.728h438.304c10.368 0 11.168 1.888 12.288 12.192l29.184 273.28c1.152 10.368-1.888 12.256-12.224 12.256z" horiz-adv-x="544" />
<glyph unicode="&#xe022;" d="M407.808 204.928c0.006-56.055 45.449-101.493 101.504-101.493 56.059 0 101.504 45.445 101.504 101.504 0 0.003 0 0.007 0 0.011 0 56.058-45.445 101.504-101.504 101.504-56.059 0-101.504-45.445-101.504-101.504zM707.797 452.565h-61.653v34.646h-121.472v-34.645l-464.811-0.001c-33.109 0-59.989-26.923-59.989-60.075v-371.627c0-33.195 26.923-60.075 59.989-60.075h647.936c33.195 0 60.075 26.923 60.075 60.075v371.628c0 33.152-26.923 60.074-60.075 60.074zM250.965 280.405h-143.018v84.224h142.976l0.042-84.224zM509.312 48.341c-86.571 0-156.629 70.144-156.629 156.629s70.059 156.544 156.629 156.544c86.485 0 156.459-70.059 156.459-156.544s-70.016-156.629-156.459-156.629z" horiz-adv-x="768" />
<glyph unicode="&#xe023;" d="M253.709 480h-210.997c-24.226 0-43.925-17.597-43.925-39.451v-433.017c0-21.8 19.699-39.505 43.924-39.505h210.998c24.226 0 43.924 17.704 43.924 39.505l0.001 433.017c0 21.854-19.699 39.451-43.925 39.451zM92.645 19.146h-16.222c-9.755 0-17.651 7.653-17.651 16.95 0 9.324 7.896 16.977 17.651 16.977h16.222c9.755 0 17.651-7.599 17.651-16.977 0-9.351-7.923-16.95-17.651-16.95zM160.31 19.146h-16.169c-9.809 0-17.651 7.599-17.651 16.95s7.869 16.977 17.651 16.977h16.168c9.836 0 17.704-7.599 17.704-16.977 0.001-9.351-7.894-16.95-17.703-16.95zM228.056 19.146h-16.223c-9.755 0-17.651 7.599-17.651 16.95s7.896 16.977 17.651 16.977h16.222c9.755 0 17.651-7.599 17.651-16.977 0-9.351-7.895-16.95-17.65-16.95zM254.329 106.375h-212.237v315.526h212.264l-0.027-315.526zM79.144 249.034l69.174-98.789c4.365-6.090 6.009-6.090 10.321-0.054v0l72.246 103.101c2.614 4.204 1.293 4.419-5.767 4.419h-34.169c-6.036 0-7.168 1.617-7.168 10.267v122.799c0 1.725-1.401 3.18-3.126 3.18h-53.463c-1.725 0-3.126-1.455-3.126-3.18l-0.162-122.799c0-8.677-1.078-10.267-7.114-10.267h-34.789c-8.893 0-8.758-0.242-2.857-8.677z" horiz-adv-x="296" />
<glyph unicode="&#xe024;" d="M420.244 480h-217.142c-24.926 0-45.217-17.597-45.217-39.451v-433.017c0-21.8 20.264-39.505 45.218-39.505h217.169c24.926 0 45.245 17.704 45.245 39.505l-0.001 433.017c-0.054 21.854-20.292 39.451-45.272 39.451zM254.491 19.146h-16.707c-9.997 0-18.163 7.653-18.163 16.95 0 9.324 8.165 16.977 18.163 16.977h16.707c10.024 0 18.163-7.599 18.163-16.977 0.026-9.351-8.112-16.95-18.163-16.95zM324.15 19.146h-16.627c-10.105 0-18.163 7.599-18.163 16.95s8.084 16.977 18.163 16.977h16.627c10.105 0 18.216-7.599 18.216-16.977 0-9.351-8.138-16.95-18.216-16.95zM393.89 19.146h-16.734c-9.997 0-18.163 7.599-18.163 16.95s8.165 16.977 18.163 16.977h16.734c9.997 0 18.163-7.599 18.163-16.977-0.028-9.351-8.166-16.95-18.163-16.95zM420.918 106.348h-218.435v315.5h218.435v-315.5zM254.491 6.023h-16.707c-17.273 0-31.286 13.501-31.286 30.073 0 16.6 14.040 30.1 31.286 30.1h16.707c17.273 0 31.286-13.501 31.286-30.1 0.054-16.573-13.986-30.073-31.286-30.073zM237.784 39.896c-2.937 0-5.012-2.021-5.012-3.827s2.075-3.8 5.012-3.8h16.707c2.991 0 5.012 1.967 5.012 3.8 0 2.075-2.317 3.827-5.012 3.827h-16.707zM324.15 6.023h-16.627c-17.273 0-31.286 13.501-31.286 30.073 0 16.6 14.040 30.1 31.286 30.1h16.627c17.3 0 31.34-13.501 31.34-30.1 0-16.573-14.040-30.073-31.34-30.073zM307.523 39.896c-2.722 0-5.012-1.725-5.012-3.827 0-2.048 2.317-3.8 5.012-3.8h16.627c2.722 0 5.066 1.725 5.066 3.8s-2.344 3.827-5.066 3.827h-16.627zM393.89 6.023h-16.734c-17.273 0-31.286 13.501-31.286 30.073 0 16.6 14.040 30.1 31.286 30.1h16.734c17.273 0 31.286-13.501 31.286-30.1 0-16.573-14.040-30.073-31.286-30.073zM377.155 39.896c-2.668 0-5.012-1.779-5.012-3.827s2.371-3.8 5.012-3.8h16.734c2.668 0 5.012 1.752 5.012 3.8s-2.371 3.827-5.012 3.827h-16.734zM275.564 240.815l98.762 69.201c6.090 4.339 6.090 6.009 0.054 10.321v0l-103.074 72.219c-4.204 2.614-4.419 1.293-4.419-5.74v-34.223c0-6.009-1.644-7.114-10.294-7.114h-225.253c-1.725 0-3.126-1.428-3.126-3.153v-53.464c0-1.671 1.401-3.126 3.126-3.126l225.253-0.135c8.677 0 10.294-1.078 10.294-7.114v-34.789c0-8.919 0.242-8.757 8.677-2.883zM268.423 230.090v0h-2.722l-2.668 2.21c-2.695 2.695-2.695 6.36-2.668 11.399l-0.026 34.789c0 0.162 0 0.296 0 0.431-0.755 0.081-1.913 0.135-3.719 0.135l-225.28 0.107c-5.363 0-9.701 4.365-9.701 9.701v53.464c0 5.363 4.365 9.728 9.701 9.728h225.253c1.779 0 2.937 0.054 3.719 0.135 0 0.135 0 0.296 0 0.458l0.027 34.196c0 4.716 0 13.528 8.111 13.528 2.425 0 4.473-1.078 6.333-2.237l103.37-72.435c2.749-1.994 7.33-5.255 7.33-10.563-0.027-5.309-4.635-8.569-7.357-10.509l-98.789-69.228c-5.094-3.53-7.654-5.309-10.914-5.309zM34.789 292.312l221.831-0.135c6.306 0 16.869 0 16.869-13.689v-31.151l96.822 67.827-96.822 67.853v-30.424c0-13.689-10.536-13.689-16.869-13.689h-221.831v-46.592zM344.36 249.465c-3.18-8.327-11.641-23.148-26.705-33.011-19.079-12.477-45.245-14.12-53.625-14.147l-149.154 0.135c-8.677 0-10.267 1.078-10.267 7.114l0.001 34.816c0 8.92-0.269 8.758-8.677 2.803l-98.762-69.201c-6.090-4.339-6.090-6.009-0.054-10.321v-0.027l103.074-72.219c4.204-2.614 4.419-1.293 4.419 5.767v34.196c0 6.009 1.644 7.114 10.267 7.114h149.154c21.908 0 44.625 2.803 62.006 18.701 26.839 24.496 21.207 95.799 18.323 88.28z" horiz-adv-x="458" />
<glyph unicode="&#xe025;" d="M149.959 222.834l-32.512-16.498c-1.195-0.569-1.678-0.313-1.906 0.939-0.483 5.29-0.853 10.666-0.853 16.099 0 92.302 71.538 167.794 162.105 174.336h-0.029c1.451 0 2.731 0.996 2.731 2.162v68.58c0 1.593-1.138 1.963-2.361 2.020-130.873-6.486-235.093-114.575-235.093-247.098 0-16.384 1.678-32.341 4.75-47.815v-0.114c0.313-1.621-0.569-2.503-1.906-3.072l-40.135-19.655c-1.621-0.74-1.991-2.048-0.54-3.015l125.611-63.232c2.020-1.166 3.356-1.052 3.527 1.678l19.968 133.063c-0.086 1.935-0.512 3.016-3.357 1.622zM269.568 220.16c0-11.492 9.273-20.764 20.736-20.764 6.656 0 12.459 3.186 16.327 8.050 24.434 2.503 69.547 6.144 86.642 8.42 3.897 0.54 3.755 5.461-0.313 6.002-17.323 2.274-61.383 6.825-85.788 10.267-1.052 1.536-2.361 2.844-3.783 4.011-2.873 34.901-8.676 117.163-11.236 146.944-0.54 6.087-4.523 5.86-5.092-0.54-2.474-30.379-7.537-111.986-10.012-146.632-4.58-3.754-7.481-9.415-7.481-15.758zM289.536-30.862c-42.468 0-88.804 13.426-130.418 37.803-4.779 3.556-4.466 7.339-4.153 8.846 1.223 5.575 7.253 6.94 11.662 7.908 5.148 1.223 21.874 6.77 26.51 8.932 1.678 0.768 2.133 1.138 2.162 1.195-1.223 3.84-4.636 23.41-6.229 32.569l-0.711 4.265c-0.626 3.669 0.597 6.087 1.764 7.424l2.020 2.418 4.409 0.484c2.19 0 4.551-0.683 7.908-2.361h0.199l1.508-0.853c26.34-14.507 55.922-22.5 83.342-22.5 92.644 0 168.021 75.406 168.021 168.078 0 87.211-68.068 160.768-154.937 167.481l-3.841 0.284-0.512 1.024c-3.015 1.707-5.035 4.75-5.035 8.192v68.21c0 4.722 3.726 8.448 8.619 8.676 135.964-6.827 241.92-118.329 241.892-253.838 0.028-140.203-114.034-254.237-254.18-254.237zM176.924 12.516c36.238-19.143 76.032-29.81 112.612-29.81 132.722 0 240.64 107.947 240.64 240.668 0.028 126.606-97.707 231.083-223.403 239.986l0.711-59.364c92.075-9.045 163.641-87.666 163.641-180.651 0-100.153-81.436-181.618-181.561-181.618-28.388 0-58.852 7.879-86.272 22.244 1.764-10.126 4.352-25.173 4.892-29.212 1.365-9.586-6.116-12.999-9.33-14.478-4.266-1.934-14.875-5.575-21.93-7.765z" horiz-adv-x="540" />
<glyph unicode="&#xe026;" d="M345.896 252.753c-74.24 0-134.494-60.2-134.494-134.494s60.254-134.548 134.494-134.548c74.24 0 134.494 60.254 134.494 134.548s-60.254 134.494-134.494 134.494zM425.445 95.488h-56.805v-56.805h-45.514v56.805h-56.751v45.514h56.751v56.805h45.514v-56.805h56.805v-45.514zM334.417 286.68l-63.623 195.746-63.65-195.746h-205.851l166.535-121.021-63.596-195.8 103.181 74.995c-10.914 21.423-17.165 45.568-17.165 71.276 0 86.744 70.36 157.13 157.103 157.13 43.385 0 82.675-17.57 111.104-46.026l81.812 59.446h-205.85zM415.124-15.347l22.205-14.794-4.662 24.199c-2.695-1.778-14.74-7.842-17.543-9.405z" horiz-adv-x="538" />
<glyph unicode="&#xe027;" d="M399.541 325.527c37.948-0.060 74.451-9.336 105.803-25.781-11.866 107.58-115.592 180.826-241.905 180.826-134.295 0-243.14-84.179-243.14-201.367 0-40.087 12.77-77.523 34.846-109.417v-0.060c4.548-6.355 5.632-11.535 3.584-16.836 0 0-56.35-119.537-57.555-122.067-1.144-2.47 0.181-4.668 3.403-2.952 3.223 1.837 115.953 70.987 115.953 70.987l0.060-0.060c7.861 4.909 9.216 4.427 18.221-1.144 23.974-14.246 56.832-34.364 90.112-38.731-15.872 24.335-17.438 60.958-17.86 92.311 1.266 101.285 82.735 174.11 188.478 174.291zM409.148 296.222c-90.413 0-163.72-73.306-163.72-163.78 0-90.413 73.306-163.78 163.72-163.78 90.443 0 163.78 73.367 163.78 163.78 0 90.474-73.306 163.78-163.78 163.78zM506.037 104.764h-69.18v-69.18h-55.386v69.18h-69.12v55.386h69.12l-0.001 69.151h55.386v-69.18h69.18l0.001-55.357z" horiz-adv-x="572" />
<glyph unicode="&#xe028;" d="M210.15 135.962c-2.944-2.458-6.579-4.070-10.701-4.070l-15.487-0.001c-9.318 0-16.87 7.603-16.87 16.973 0 9.318 7.552 16.922 16.87 16.922h3.635c-6.784 11.52-12.109 23.936-15.846 37.146l-133.735-0.001v219.213h177.869v-59.878c12.16 11.418 26.086 20.941 41.37 28.16l0.025 50.304c0 21.862-18.842 39.526-41.958 39.526h-176.717c-23.194 0-42.035-17.664-42.035-39.526v-432.973c0-21.76 18.842-39.475 42.035-39.475h176.691c23.142 0 41.958 17.69 41.958 39.475v94.464c-17.74 8.32-33.689 19.763-47.104 33.741zM69.939 19.482h-15.539c-9.318 0-16.87 7.552-16.87 16.87 0 9.37 7.552 16.973 16.87 16.973h15.539c9.37 0 16.87-7.603 16.87-16.973 0.001-9.318-7.5-16.87-16.87-16.87zM69.939 75.674h-15.539c-9.318 0-16.87 7.603-16.87 16.922 0 9.37 7.552 16.973 16.87 16.973h15.539c9.37 0 16.87-7.603 16.87-16.973 0.001-9.319-7.5-16.922-16.87-16.922zM69.939 131.891h-15.539c-9.318 0-16.87 7.603-16.87 16.973s7.552 16.922 16.87 16.922h15.539c9.37 0 16.87-7.603 16.87-16.922 0.001-9.395-7.5-16.973-16.87-16.973zM134.656 19.482h-15.488c-9.318 0-16.87 7.552-16.87 16.87 0 9.37 7.552 16.973 16.87 16.973h15.488c9.37 0 16.922-7.603 16.922-16.973 0-9.318-7.552-16.87-16.922-16.87zM134.656 75.674h-15.488c-9.318 0-16.87 7.603-16.87 16.922 0 9.37 7.552 16.973 16.87 16.973h15.488c9.37 0 16.922-7.603 16.922-16.973 0-9.319-7.552-16.922-16.922-16.922zM134.656 131.891h-15.488c-9.318 0-16.87 7.603-16.87 16.973 0 9.318 7.552 16.922 16.87 16.922h15.488c9.37 0 16.922-7.603 16.922-16.922 0-9.395-7.552-16.973-16.922-16.973zM199.45 19.482h-15.488c-9.318 0-16.87 7.552-16.87 16.87 0 9.37 7.552 16.973 16.87 16.973h15.488c9.37 0 16.922-7.603 16.922-16.973-0.001-9.318-7.553-16.87-16.922-16.87zM199.45 75.674h-15.488c-9.318 0-16.87 7.603-16.87 16.922 0 9.37 7.552 16.973 16.87 16.973h15.488c9.37 0 16.922-7.603 16.922-16.973-0.001-9.319-7.553-16.922-16.922-16.922zM324.838 385.51c-76.851 0-139.162-62.362-139.162-139.187 0-76.877 62.31-139.238 139.162-139.238 76.877 0 139.238 62.31 139.238 139.238 0.001 76.826-62.335 139.187-139.238 139.187zM407.168 222.822h-58.803v-58.803h-47.078v58.803h-58.727v47.028h58.726v58.777h47.078v-58.803h58.803l0.001-47.002z" horiz-adv-x="460" />
<glyph unicode="&#xe029;" d="M523.127 485.359h-318.089c-24.986-0.068-45.158-20.275-45.158-45.261l0.001-26.999h-195.106c-25.020-0.068-45.056-20.275-45.056-45.193v-242.244c0-24.883 20.139-44.988 45.056-45.056h111.138v-73.421c0.137-24.986 20.275-45.056 45.193-45.158h318.020c25.020 0.102 45.124 20.207 45.124 45.158l0.034 145.579h38.878c24.951 0.068 45.124 20.207 45.124 45.193v242.176c-0.034 25.053-20.207 45.192-45.159 45.226zM-35.157 119.927c-3.14 0-5.837 2.628-5.837 5.769l0.034 242.21c0 3.277 2.697 5.973 5.837 5.973h318.123c3.072 0 5.905-2.799 5.905-5.973v-73.455l-167.766 0.034c-24.951-0.068-45.056-20.139-45.193-45.124v-129.434l-111.103-0.034zM444.996 7.185c0-3.243-2.697-5.871-5.939-5.871h-317.918c-3.209 0-5.905 2.765-5.905 5.871v242.142c0 3.14 2.697 5.905 5.905 5.905h318.020c3.243 0 5.939-2.765 5.939-5.905l-0.102-242.142zM529.033 197.956c0-3.14-2.765-5.905-5.905-5.905h-38.878v57.276c0 24.951-20.105 45.056-45.124 45.124h-111.036l-0.035 73.455c0 24.917-20.070 45.124-45.158 45.193h-83.797l0.034 27.033c0 3.277 2.765 5.973 5.939 5.973h318.089c3.14 0 5.905-2.697 5.905-5.973l-0.034-242.176z" horiz-adv-x="648" />
<glyph unicode="&#xe02a;" d="M136.793 152.765c5.721-6.478 12.711-11.353 21.081-14.737 8.37-3.406 17.675-5.075 28.026-5.075 6.478 0 12.355 0.668 17.608 2.115 5.254 1.469 9.973 3.361 14.136 5.921 4.163 2.471 7.769 5.476 10.863 8.838 3.005 3.45 3.005 3.45 3.005 3.45 2.738 4.118 5.877 7.591 7.057 7.591-0.712-11.064-2.070-21.192-4.363-30.364-2.271-9.171-6.433-17.119-11.954-23.775-5.521-6.567-13.023-11.731-22.595-15.405-9.55-3.673-21.638-5.521-36.463-5.521-4.853 0-9.505 0.334-14.18 0.935-4.719 0.558-4.719 0.558-4.719 0.558-4.719 1.091-8.459-16.295-8.459-38.756 2.026-0.423 4.296-0.801 6.901-1.046 2.56-0.267 5.343-0.534 8.17-0.623 2.738-0.223 5.521-0.312 8.303-0.423 2.738-0.178 5.298-0.223 7.502-0.223 15.983 0 29.919 1.937 41.739 5.677 11.954 3.784 22.127 8.971 30.586 15.538 8.526 6.567 15.538 14.336 21.037 23.396 5.476 8.971 9.884 18.721 13.067 29.073 3.317 10.374 5.476 21.326 6.767 32.768 1.224 11.442 1.848 22.929 1.848 34.46 0 17.831-2.204 33.547-6.522 46.748-4.408 13.245-10.418 24.198-17.92 32.813-7.546 8.659-16.451 15.004-26.669 19.233-10.463 4.252-21.459 6.389-33.235 6.389-11.999 0-22.862-1.892-32.568-5.766-9.639-3.83-17.943-9.351-24.688-16.496-6.723-7.146-11.999-15.805-15.694-26.223-3.673-10.285-5.432-21.927-5.432-34.883 0-12.199 1.514-22.973 4.541-32.39 3.073-9.372 7.392-17.341 13.224-23.797zM170.34 228.385c1.38 5.254 3.495 9.594 6.189 13.067 2.56 3.495 5.766 6.010 9.594 7.635 3.673 1.647 7.769 2.471 12.199 2.471 5.521 0 10.285-1.336 14.381-4.074 4.051-2.783 7.591-6.344 10.418-10.73 2.783-4.408 4.808-9.439 6.233-15.004 1.38-5.521 1.937-11.019 1.937-16.607 0-4.051-0.668-8.036-2.248-12.043-1.647-3.918-3.962-7.502-6.901-10.641-2.916-3.117-6.478-5.721-10.552-7.68-4.207-1.892-8.838-2.961-13.846-2.961-10.062 0-17.43 3.406-22.328 10.24-5.009 6.767-7.413 15.983-7.413 27.603 0.044 7.082 0.757 13.426 2.337 18.724zM379.437 480h-50.51v-26.713c0-11.219-9.082-20.391-20.391-20.391-11.197 0-20.28 9.171-20.28 20.391v26.713h-167.446v-26.713c0-11.197-9.171-20.391-20.391-20.391-11.264 0-20.346 9.216-20.346 20.391l-0.023 26.713h-59.347c-12.578 0-22.551-9.439-24.153-21.66v-468.636c1.603-12.11 11.487-21.704 24.153-21.704h358.734c13.757 0 24.665 11.064 24.732 24.621l-0.001 462.803c-0.089 13.624-11.019 24.576-24.731 24.576zM375.385-3.35h-350.564v345.021h350.564v-345.021z" horiz-adv-x="400" />
<glyph unicode="&#xe02b;" d="M379.437 480h-50.51v-26.713c0-11.219-9.082-20.391-20.391-20.391-11.197 0-20.28 9.171-20.28 20.391v26.713h-167.446v-26.713c0-11.197-9.171-20.391-20.391-20.391-11.264 0-20.346 9.216-20.346 20.391l-0.023 26.713h-59.347c-12.578 0-22.551-9.439-24.153-21.66v-468.636c1.603-12.11 11.487-21.704 24.153-21.704h358.734c13.757 0 24.665 11.064 24.732 24.621l-0.001 462.803c-0.089 13.624-11.019 24.576-24.731 24.576zM375.385-3.35h-350.564v345.021h350.564v-345.021z" horiz-adv-x="400" />
<glyph unicode="&#xe02c;" d="M877.714 52.699c0-25.015-9.582-49.957-28.745-69.047-38.254-38.034-99.913-37.888-138.021 0.219l-272.091 273.263-272.091-273.481c-38.108-38.035-99.84-38.254-138.094-0.22-38.107 38.108-38.327 99.84-0.219 138.094l341.285 342.674c18.285 18.359 43.153 28.672 69.119 28.672 25.966 0 50.834-10.313 69.047-28.745l341.358-342.674c18.944-19.017 28.452-43.886 28.452-68.755z" horiz-adv-x="877" />
<glyph unicode="&#xe02d;" d="M738.475 482.867c-7.782-21.504-29.662-82.637-87.791-138.001-47.718-45.534-122.743-51.371-144.247-51.575l-197.735-0.717c-22.426-0.307-26.385 2.526-26.488 17.954l-0.375 89.429c-0.273 22.972-0.99 22.426-22.357 7.1l-247.74-204.049c-15.667-11.298-15.667-15.497 0-26.419l-0.068-0.068 260.881-209.203c10.718-6.588 11.196-3.277 11.127 14.848l-0.512 87.79c0.102 15.462 4.267 18.398 26.18 18.398l197.905 1.229c56.115 0.239 111.889 10.547 162.099 43.827 116.088 76.732 76.562 368.777 69.121 349.457z" horiz-adv-x="750" />
<glyph unicode="&#xe02e;" d="M397.312 480v-286.903l-116.078 136.777-73.837-88.173-74.789 88.173-126.793-151.479v-177.81c0-17.92 9.984-32.549 22.418-32.549h419.11c12.288 0 22.235 14.629 22.235 32.549v104.338l0.036 75.411v299.629l-72.302 0.037z" horiz-adv-x="475" />
<glyph unicode="&#xe02f;" d="M461.214 473.125l-7.387 5.632c-2.316 1.804-5.486 1.585-7.046-0.463l-159.939-169.496c-16.067 4.145-32.768 7.144-50.176 8.436-123.49 9.265-229.449-61.245-236.69-157.477-2.755-36.815 31.646-84.187 50.054-50.493 0.122 0.317 0.317 0.39 0.488 0.561 8.777 22.479 16.433 33.573 41.716 31.695 31.037-2.292 57.929-34.475 55.613-65.56-1.512-19.773-19.237-31.72-38.4-31.11-12.702 0.488-60.977 2.999-22.406-33.182 38.619-36.206 90.478-40.424 123.538-42.935 123.514-9.24 229.449 61.245 236.69 157.525 4.779 63.878-35.377 122.88-98.914 158.135l114.2 181.614c1.536 2.144 0.976 5.289-1.341 7.118zM183.394 120.625c0 0 16.14 14.434 17.164 57.125 0.512 21.138 21.187 44.544 30.574 44.544l38.546-29.696c2.316-9.118-0.683-20.748-13.629-37.474-24.211-31.33-72.655-34.499-72.655-34.499zM244.858 5.181c-17.384 1.317-30.427 16.408-29.135 33.816 1.317 17.359 16.506 30.452 33.841 29.135 17.335-1.292 30.403-16.482 29.086-33.816-1.268-17.432-16.408-30.452-33.792-29.135zM244.102 238.019l28.916 53.492c1.341 1.658 3.877 1.78 5.803 0.39l47.397-33.012c1.902-1.463 2.389-3.998 1.073-5.681l-45.202-44.446-37.987 29.257zM340.187 46.385c-17.432 1.317-30.427 16.408-29.135 33.841 1.317 17.359 16.433 30.379 33.792 29.062 17.408-1.317 30.427-16.408 29.111-33.792-1.317-17.408-16.408-30.403-33.768-29.111zM371.956 205.641c17.335-1.317 30.427-16.384 29.135-33.792s-16.457-30.403-33.865-29.135c-17.335 1.317-30.379 16.408-29.086 33.841 1.316 17.383 16.432 30.378 33.816 29.086z" horiz-adv-x="463" />
<glyph unicode="&#xe030;" d="M0 395.374c0 25.015 9.509 49.957 28.599 69.12 38.254 38.034 100.059 37.888 138.094-0.219l272.238-273.408 272.091 273.408c38.107 38.107 99.767 38.254 138.094 0.219 38.107-38.034 38.254-99.913 0.293-138.021l-341.578-342.674c-18.213-18.359-43.008-28.745-68.974-28.745s-50.761 10.386-69.12 28.745l-341.431 342.674c-18.797 19.090-28.306 43.959-28.306 68.901z" horiz-adv-x="877" />
<glyph unicode="&#xe031;" d="M484.722 198.542c-7.14 121.515-102.997 218.965-223.886 228.38 0 42.724 0.057 33.82 0.057 33.963-0.001 10.582-8.562 19.115-19.144 19.115s-19.114-8.533-19.114-19.115v-33.962c-120.832-9.444-216.69-106.895-223.773-228.381h223.772v-149.049c-0.91-35.726-15.9-43.122-24.86-43.292-9.244 0.085-24.86 8.476-25.657 43.292 0 10.581-8.533 19.115-19.143 19.115-10.524 0-19.086-8.505-19.086-19.115 0.057-47.787 28.444-81.408 63.886-81.522h0.114c17.010 0 33.735 8.249 45.113 22.756 11.548 14.507 17.892 34.588 17.863 58.766 0 17.948 0 48.526 0 149.049h223.858z" horiz-adv-x="483" />
<glyph unicode="&#xe032;" d="M141.483 270.108c3.755 10.894 0 73.956 5.575 91.278 4.466 13.909 42.866 38.997 58.311 48.498 2.93 1.849 6.94 3.726 9.216 1.479v-0.114c12.032-10.468 58.14-49.55 77.511-47.673 13.483 1.337 22.756 1.849 28.046 2.048 1.82 0 3.641-0.853 3.413-2.617l-3.669-26.936c0 0 0-33.024 0-70.77 0-37.746-5.746-57.771-9.159-65.28-12.629-27.108-33.906-42.041-55.78-46.564-14.137-2.93-29.554-0.398-37.433 0.313-3.413 0.284-4.039-0.768-1.166-2.873 5.319-3.812 15.132-11.52 31.147-14.933 19.399-4.267 45.938-5.234 60.587 18.83 16.896 27.79 27.932 118.5 27.932 118.5 12.857 25.657 19.285 55.552 17.38 81.579-1.82 26.084-24.178 106.524-68.75 117.362-44.658 10.98-59.506 2.219-59.506 2.219s-11.094 10.865-33.394 2.19c-22.357-8.648-74.382-60.843-68.807-108.658 5.632-47.844 14.905-108.743 18.546-97.878zM360.932 110.734c-6.912 2.56-18.062 7.111-26.453 10.468-7.708 1.849-10.894 1.707-13.682-3.044-8.789-19.655-36.096-71.509-79.189-71.509-40.192 0-62.948 40.903-71.708 61.042-3.755 9.529-6.144 10.468-16.128 8.021-34.418-8.363-133.063-32.597-145.436-36.409-2.59-0.768-5.662-4.665-9.019-10.467v-100.836h484.949v102.684c-35.754 18.319-113.322 36.040-123.334 40.050z" horiz-adv-x="483" />
<glyph unicode="&#xe033;" d="M514.432 354.112h-51.424v134.304h-382.656v-134.304h-50.784c-16.32 0-29.568-13.248-29.568-29.536v-264.736c0-16.32 13.248-29.632 29.568-29.632h50.784v-70.624h382.656v70.624h51.392c16.352 0 29.6 13.312 29.6 29.632v264.736c0 16.288-13.248 29.536-29.568 29.536zM428.704-7.712h-315.232v84.704h315.232v-84.704zM428.704 265.184h-315.232v188.768h315.232v-188.768zM156.608 403.52h246.176v-31.872h-246.176zM156.608 339.872h246.176v-31.84h-246.176z" horiz-adv-x="544" />
<glyph unicode="&#xe034;" d="M217.547 141.144c-16.119 44.668-22.422 122.756-22.422 180.136 0 27.101-11.723 45.603-24.329 57.715 3.196 2.542 6.709 4.608 10.734 5.985 32.733 11.811 63.506-31.585 69.438-73.393 0 0 0.865-10.275 0.865-10.54 3.46-104.218 55.932-198.409 55.932-198.409 0-2.842-0.141-6.056-0.53-9.234h47.298c-13.63 25.529-72.881 118.254-77.347 222.685 0 0.247-1.377 11.9-1.377 11.9-7.027 40.271-38.188 72.245-77.859 80.808v57.255c0 7.733-6.25 13.948-14.071 13.948h-14.637c-7.68 0-14.071-6.215-14.071-13.948v-57.238c-39.706-8.563-70.656-40.554-77.859-80.808 0 0-1.589-18.15-1.589-18.344-5.826-114.635-62.57-192.6-76.729-216.223h239.334c-4.803 12.607-13.295 26.59-20.781 47.705zM304.093 73.737c-3.372-13.842-8.651-25.653-14.618-25.653h-56.074c6.020 9.958 8.386 18.079 8.757 25.653h-245.089c3.319-21.963 13.294-47.228 24.929-47.228h127.435c-2.86-5.914-4.661-12.641-4.661-19.968 0-21.239 14.23-38.541 31.85-38.541 17.673 0 31.726 17.302 31.726 38.541 0 7.327-1.66 14.054-4.484 19.968h127.223c11.829 0 21.575 25.282 24.947 47.228h-51.941zM186.598-3.699c-7.080 0-13.030 8.21-13.030 18.273 0 2.895 0.636 5.667 1.571 8.21h23.181c0.847-2.525 1.395-5.314 1.395-8.21 0.018-10.081-5.844-18.273-13.117-18.273z" horiz-adv-x="353" />
<glyph unicode="&#xe035;" d="M561.429 50.709v0.064c22.421 23.211 35.904 52.352 35.904 84.267 0 75.755-74.965 137.216-167.573 137.216-92.544 0-167.744-61.461-167.744-137.216 0-75.776 75.2-137.109 167.744-137.109 19.541 0 35.072 2.091 51.051 6.763h0.043c8.469 2.859 14.827 4.075 20.928 1.195 0 0 78.955-44.651 79.829-45.099 1.557-1.003 3.413 0.512 2.944 1.877-0.597 1.493-28.117 68.288-28.117 68.288-4.31 9.6-2.177 12.842 4.991 19.754zM429.739 320.491c40.917-0.107 80.192-10.176 114.027-27.797-12.886 115.903-124.587 194.858-260.63 194.858-144.768 0-262.080-90.709-262.080-216.96 0-43.221 13.909-83.563 37.504-117.845v-0.085c5.013-6.912 6.037-12.416 3.968-18.197 0 0-60.757-128.747-62.101-131.541-1.173-2.603 0.128-5.013 3.776-3.072 3.435 1.877 124.971 76.416 124.971 76.416v-0.064c8.448 5.355 9.984 4.843 19.499-1.237 25.813-15.381 55.531-25.877 91.392-30.507-17.237 26.24-27.243 56.768-27.627 90.539 1.535 109.161 103.423 185.236 217.301 185.492z" horiz-adv-x="597" />
<glyph unicode="&#xe036;" d="M0 459.093v-470.229c0-28.629 0-28.8 22.485-19.029l562.901 244.907c16.683 7.851 15.957 11.179-2.347 19.541l-562.815 244.821c-20.181 8.704-20.224 7.595-20.224-20.011z" horiz-adv-x="597" />
<glyph unicode="&#xe037;" d="M216.718 470.727c0 0-21.874-25.145-23.097-33.735-1.194-8.619 40.96-40.334 42.667-54.955-23.268-56.064-58.823-81.465-78.279-95.601-3.812-2.76-10.695-7.965-12.8-7.254-73.785 26.084-141.369-79.673-141.369-79.673-6.514-9.728-4.096-22.898 5.547-29.582l90.482-59.079-76.345-137.671 8.078-5.148 98.674 120.206 87.125-60.7c9.728-6.628 22.955-4.096 29.582 5.49 0 0 74.155 101.262 23.154 160.683-1.394 1.621 0.967 9.927 2.133 14.478 6.116 23.381 16.896 65.707 60.814 107.605 14.251 3.755 59.079-24.064 66.645-19.854 7.567 4.18 23.069 33.763 23.069 33.763 6.628 9.7 4.096 22.898-5.49 29.468l-171.036 117.106c-9.614 6.627-22.898 4.153-29.554-5.547zM215.125 206.194l-70.912 51.058c-56.519 22.613-107.719-53.561-107.719-53.561-5.092-6.94-3.1-16.868 4.38-22.3l61.269-44.060 36.295-26.254 24.747-17.806c8.704-5.575 14.478-6.514 22.386 4.693 9.871 13.766 38.429 101.915 29.554 108.23zM331.89 393.586l-70.599 51.541c-6.998 5.063-17.323 2.389-23.211-5.746-5.86-8.078-12.516-13.312-5.66-18.147l85.618-62.35c6.855-5.006 9.728 2.958 15.673 11.008 5.859 8.22 5.062 18.744-1.821 23.694z" horiz-adv-x="426" />
<glyph unicode="&#xe038;" d="M167.834 482.662l-134.144-0.068c-18.569 0-33.656-15.053-33.69-33.621v-449.98c0.034-18.569 15.121-33.587 33.69-33.655h134.178c18.603 0.068 33.655 15.121 33.69 33.655l-0.001 449.98c-0.068 18.568-15.121 33.621-33.723 33.689zM573.406 436.070h-340.787v-437.077c0-4.198-0.649-8.124-1.638-12.015h342.391c22.699 0 40.994 18.432 40.994 40.994v367.070c0.034 22.596-18.33 41.028-40.96 41.028zM300.134 383.164h252.894v-134.929h-252.894v134.929zM325.803 40.192h-15.19c-9.079 0-16.486 7.885-16.486 17.51 0 9.762 7.407 17.613 16.486 17.613h15.189c9.079 0 16.486-7.885 16.486-17.613 0.001-9.693-7.406-17.51-16.485-17.51zM325.803 98.594h-15.19c-9.079 0-16.486 7.885-16.486 17.613 0 9.694 7.407 17.545 16.486 17.545h15.189c9.079 0 16.486-7.885 16.486-17.545 0.001-9.728-7.406-17.613-16.485-17.613zM325.803 157.030h-15.19c-9.079 0-16.486 7.885-16.486 17.545 0 9.762 7.407 17.613 16.486 17.613h15.189c9.079 0 16.486-7.885 16.486-17.613 0.001-9.66-7.406-17.545-16.485-17.545zM410.624 40.192h-15.189c-9.079 0-16.452 7.885-16.452 17.51 0 9.762 7.373 17.613 16.452 17.613h15.189c9.079 0 16.452-7.885 16.452-17.613 0.034-9.693-7.373-17.51-16.452-17.51zM410.624 98.594h-15.189c-9.079 0-16.452 7.885-16.452 17.613 0 9.694 7.373 17.545 16.452 17.545h15.189c9.079 0 16.452-7.885 16.452-17.545 0.034-9.728-7.373-17.613-16.452-17.613zM410.624 157.030h-15.189c-9.079 0-16.452 7.885-16.452 17.545 0 9.762 7.373 17.613 16.452 17.613h15.189c9.079 0 16.452-7.885 16.452-17.613 0.034-9.66-7.373-17.545-16.452-17.545zM473.873 40.192h-15.155c-9.114 0-16.521 7.817-16.521 17.51 0 9.762 7.407 17.613 16.521 17.613h15.155c9.079 0 16.486-7.885 16.486-17.613 0.035-9.693-7.372-17.51-16.486-17.51zM473.873 98.594h-15.155c-9.114 0-16.521 7.885-16.521 17.613 0 9.694 7.407 17.545 16.521 17.545h15.155c9.079 0 16.486-7.885 16.486-17.545 0.035-9.728-7.372-17.613-16.486-17.613zM473.873 157.030h-15.155c-9.114 0-16.521 7.885-16.521 17.545 0 9.762 7.407 17.613 16.521 17.613h15.155c9.079 0 16.486-7.885 16.486-17.613 0.035-9.66-7.372-17.545-16.486-17.545zM537.156 40.192h-15.155c-9.114 0-16.486 7.817-16.486 17.51 0 9.762 7.373 17.613 16.486 17.613h15.155c9.114 0 16.521-7.885 16.521-17.613 0-9.693-7.373-17.51-16.521-17.51zM537.156 98.594h-15.155c-9.114 0-16.486 7.885-16.486 17.613 0 9.694 7.373 17.545 16.486 17.545h15.155c9.114 0 16.521-7.885 16.521-17.545 0-9.728-7.373-17.613-16.521-17.613zM537.156 157.030h-15.155c-9.114 0-16.486 7.885-16.486 17.545 0 9.762 7.373 17.613 16.486 17.613h15.155c9.114 0 16.521-7.885 16.521-17.613 0-9.66-7.373-17.545-16.521-17.545z" horiz-adv-x="614" />
<glyph unicode="&#xe039;" d="M209.597 480h-176.667c-23.175 0-42.038-17.624-42.038-39.478v-433.044c0-21.8 18.863-39.478 42.038-39.478h176.694c23.175 0 42.038 17.677 42.038 39.478l-0.027 433.044c0 21.881-18.864 39.505-42.038 39.478zM32.337 421.875h177.88v-219.271h-177.88v219.271zM64.243 19.146h-15.549c-9.297 0-16.842 7.599-16.842 16.95 0 9.324 7.572 16.923 16.842 16.923h15.549c9.324 0 16.869-7.599 16.869-16.923 0-9.351-7.546-16.95-16.869-16.95zM64.243 75.358h-15.549c-9.297 0-16.842 7.626-16.842 16.95 0 9.378 7.572 16.977 16.842 16.977h15.549c9.324 0 16.869-7.599 16.869-16.977 0-9.324-7.546-16.95-16.869-16.95zM64.243 131.624h-15.549c-9.297 0-16.842 7.572-16.842 16.95 0 9.324 7.572 16.923 16.842 16.923h15.549c9.324 0 16.869-7.599 16.869-16.923 0-9.377-7.546-16.95-16.869-16.95zM128.97 19.173h-15.468c-9.351 0-16.896 7.545-16.896 16.923 0 9.324 7.545 16.923 16.896 16.923h15.468c9.351 0 16.923-7.599 16.923-16.923 0-9.351-7.545-16.923-16.923-16.923zM128.97 75.358h-15.468c-9.351 0-16.896 7.626-16.896 16.95 0 9.378 7.545 16.977 16.896 16.977h15.468c9.351 0 16.923-7.599 16.923-16.977 0-9.324-7.545-16.95-16.923-16.95zM128.97 131.624h-15.468c-9.351 0-16.896 7.572-16.896 16.95 0 9.324 7.545 16.95 16.896 16.95h15.468c9.351 0 16.923-7.626 16.923-16.95 0-9.377-7.545-16.95-16.923-16.95zM193.779 19.173h-15.495c-9.324 0-16.869 7.545-16.869 16.923 0 9.324 7.572 16.923 16.869 16.923h15.522c9.324 0 16.896-7.599 16.896-16.923-0.027-9.351-7.6-16.923-16.923-16.923zM193.779 75.358h-15.495c-9.324 0-16.869 7.626-16.869 16.95 0 9.378 7.572 16.977 16.869 16.977h15.522c9.324 0 16.896-7.599 16.896-16.977-0.027-9.324-7.6-16.95-16.923-16.95zM193.779 131.624h-15.495c-9.324 0-16.869 7.572-16.869 16.95 0 9.324 7.572 16.95 16.869 16.95h15.522c9.324 0 16.896-7.626 16.896-16.95-0.027-9.377-7.6-16.95-16.923-16.95z" horiz-adv-x="242" />
<glyph unicode="&#xe03a;" d="M543.812 353.468h-49.562l0.001 140.254h-408.201v-140.254h-49.596c-20.138 0-36.454-16.384-36.454-36.489v-326.246c0-20.139 16.316-36.454 36.454-36.454l507.358-0.035c20.173 0 36.454 16.316 36.454 36.454l0.001 326.281c0 20.105-16.316 36.489-36.455 36.489zM121.378 456.96h336.247v-103.492h-336.247v103.492zM102.673 34.935h-13.483c-8.021 0-14.677 6.997-14.677 15.565 0 8.67 6.622 15.633 14.677 15.633h13.517c8.090 0 14.711-6.997 14.711-15.633-0.033-8.635-6.621-15.565-14.745-15.565zM102.673 86.886h-13.483c-8.021 0-14.677 6.929-14.677 15.599s6.622 15.633 14.677 15.633h13.517c8.090 0 14.711-6.997 14.711-15.633-0.033-8.67-6.621-15.599-14.745-15.599zM102.673 138.803h-13.483c-8.021 0-14.677 6.997-14.677 15.599 0 8.67 6.622 15.667 14.677 15.667h13.517c8.090 0 14.711-7.031 14.711-15.667-0.033-8.636-6.621-15.599-14.745-15.599zM178.074 34.935h-13.449c-8.158 0-14.677 6.997-14.677 15.565 0 8.67 6.485 15.633 14.677 15.633h13.449c8.124 0 14.711-6.997 14.711-15.633 0-8.635-6.588-15.565-14.711-15.565zM178.074 86.886h-13.449c-8.158 0-14.677 6.929-14.677 15.599s6.485 15.633 14.677 15.633h13.449c8.124 0 14.711-6.997 14.711-15.633 0-8.67-6.588-15.599-14.711-15.599zM178.074 138.803h-13.449c-8.158 0-14.677 6.997-14.677 15.599 0 8.67 6.485 15.667 14.677 15.667h13.449c8.124 0 14.711-7.031 14.711-15.667 0-8.636-6.588-15.599-14.711-15.599zM234.359 34.935h-13.482c-8.124 0-14.677 6.963-14.677 15.531 0 8.704 6.519 15.633 14.677 15.633h13.483c8.090 0 14.677-6.997 14.677-15.633 0-8.601-6.554-15.531-14.678-15.531zM234.359 86.886h-13.482c-8.124 0-14.677 6.929-14.677 15.599s6.519 15.633 14.677 15.633h13.483c8.090 0 14.677-6.997 14.677-15.633 0-8.67-6.554-15.599-14.678-15.599zM234.359 138.803h-13.482c-8.124 0-14.677 6.997-14.677 15.599 0 8.67 6.519 15.667 14.677 15.667h13.483c8.090 0 14.677-7.031 14.677-15.667s-6.554-15.599-14.678-15.599zM290.611 34.935h-13.482c-8.090 0-14.711 6.963-14.711 15.531 0 8.704 6.588 15.633 14.711 15.633h13.449c8.124 0 14.746-6.997 14.746-15.633-0.001-8.601-6.589-15.531-14.713-15.531zM290.611 86.886h-13.482c-8.090 0-14.711 6.929-14.711 15.599s6.588 15.633 14.711 15.633h13.449c8.124 0 14.746-6.997 14.746-15.633-0.001-8.67-6.589-15.599-14.713-15.599zM290.611 138.803h-13.482c-8.090 0-14.711 6.997-14.711 15.599 0 8.67 6.588 15.667 14.711 15.667h13.449c8.124 0 14.746-7.031 14.746-15.667-0.001-8.636-6.589-15.599-14.713-15.599zM312.661 219.87h-243.166v71.953h243.2l-0.034-71.953z" horiz-adv-x="580" />
<glyph unicode="&#xe03b;" d="M1122.432 337.408c0 0-146.112 0-295.552 0h-313.408c-0.128 0-0.256 0-0.384 0-10.304 0-12.608 7.936-13.12 14.016v-0.128c-4.224 49.216-49.664 75.648-87.36 88.064l-1.152 0.384-287.296 59.776h-1.984c-39.936 0.128-76.416-11.456-95.744-31.232-19.52-19.904-26.56-45.76-26.432-69.888v-348.992c0-23.296 5.568-49.216 24.704-69.568 19.2-20.032 55.68-31.36 96.832-31.36h2.496l288.832 60.032c39.424 12.48 80.128 36.096 86.4 80.832 0.896 8.128 6.528 13.824 17.024 13.952h149.952c8.704 0 22.336 2.496 22.336 13.248 0 0.256 0 0.512 0 0.768v0.064c0.128 44.992 42.688 78.848 53.696 78.848s53.696-37.312 53.696-79.232v0-1.024c0.384-10.304 13.76-12.736 22.208-12.736h-4.288c8.576 0 22.336 2.496 22.336 13.248l0.064 0.448v0.448c0.128 44.992 42.688 78.848 53.568 78.848 11.072 0 53.696-37.312 53.696-79.232h0.128l-0.128-0.64c0.128-10.688 13.76-13.12 22.336-13.12h-4.288c8.576 0 22.336 2.496 22.336 13.248v0l0.064 0.896h0.128c0.128 44.992 42.688 78.848 53.568 78.848 11.072 0 53.824-37.312 53.824-79.232 0-0.384-0.128-0.64-0.256-0.896 0.384-10.432 13.76-12.864 22.336-12.864h-1.28c55.168 0 103.424 35.264 103.936 83.84l0.064 66.24c-0.768 48.64-44.352 83.968-93.888 84.096zM235.392 218.752h0.128c-0.128-40.768-27.904-73.92-68.736-73.92s-66.048 33.152-66.048 73.92c0 1.856 0.384 3.52 0.512 5.184-0.128 1.856-0.512 3.52-0.512 5.312 0 40.832 25.28 73.792 66.112 73.792s68.608-33.088 68.608-73.792h0.128c0-1.856-0.384-3.776-0.512-5.568 0.064-1.6 0.32-3.264 0.32-4.928z" horiz-adv-x="1216" />
<glyph unicode="&#xe03c;" d="M450.752 316.064h27.040l34.24 85.728-348.928 75.424-32.736-67.392 337.728-44.544-17.344-49.216zM490.24 266.72h-478.272c-9.696 0-12.704-1.856-11.808-11.648l28.416-274.624c0.992-8.064 2.432-9.664 11.52-9.664h422.048c9.952 0 10.752 1.856 11.808 12.096l28.096 271.648c1.056 10.336-1.792 12.192-11.808 12.192zM333.28 123.552h-37.216c-6.944 0-8.256-1.312-8.256-8.448v-88.736c0-7.136-1.248-8.448-8.192-8.448h-58.624c-6.944 0-8.192 1.312-8.192 8.448v88.672c0 7.2-1.312 8.512-8.256 8.512h-35.648c-10.208-0.064-10.080 0.256-3.264 7.2l79.456 81.792c5.024 5.056 6.88 5.056 11.872 0l82.976-85.344c2.976-3.456 1.408-3.648-6.656-3.648z" />
<glyph unicode="&#xe03d;" d="M8.736 447.072c-8.832 0-16.032-10.528-16.032-23.552s7.232-23.552 16.032-23.552h46.048v47.104h-46.048zM-7.296 224.864c0-12.992 7.2-23.552 16.032-23.552h46.048v47.136h-46.048c-8.832 0-16.032-10.528-16.032-23.584zM-7.296 324.16c0-12.96 7.232-23.52 16.032-23.52h46.048v47.104h-46.048c-8.832 0-16.032-10.528-16.032-23.584zM-7.296 26.336c0-12.96 7.232-23.52 16.032-23.52h46.048v47.168h-46.048c-8.832-0.064-16.032-10.688-16.032-23.648zM-7.296 125.632c0-12.96 7.232-23.584 16.032-23.584h46.048v47.2h-46.048c-8.832-0.032-16.032-10.656-16.032-23.616zM430.528 465.632h-358.624c-5.728 0-10.304-4.672-10.304-10.304v-462.656c0-5.696 4.64-10.304 10.304-10.304h358.624c5.696 0 10.304 4.672 10.304 10.304v462.656c0 5.664-4.608 10.304-10.304 10.304zM362.816 64.896h-218.656c-8.736 0-15.84 7.136-15.84 15.776 0 8.768 7.136 15.84 15.84 15.84h218.656c8.736 0 15.84-7.104 15.84-15.84 0-8.64-7.136-15.776-15.84-15.776zM362.816 136.864h-218.656c-8.736 0-15.84 7.136-15.84 15.84s7.136 15.776 15.84 15.776h218.656c8.736 0 15.84-7.072 15.84-15.776s-7.136-15.84-15.84-15.84zM362.816 208.896h-218.656c-8.736 0-15.84 7.168-15.84 15.776 0 8.8 7.136 15.84 15.84 15.84h218.656c8.736 0 15.84-7.072 15.84-15.84 0-8.64-7.136-15.776-15.84-15.776zM362.816 280.864h-218.656c-8.736 0-15.84 7.168-15.84 15.84 0 8.736 7.136 15.776 15.84 15.776h218.656c8.736 0 15.84-7.072 15.84-15.776s-7.136-15.84-15.84-15.84zM362.816 352.864h-218.656c-8.736 0-15.84 7.168-15.84 15.776 0 8.8 7.136 15.84 15.84 15.84h218.656c8.736 0 15.84-7.072 15.84-15.84 0-8.64-7.136-15.776-15.84-15.776z" horiz-adv-x="448" />
<glyph unicode="&#xe03e;" d="M780.083 480.717h-740.966c-45.056 0-45.312 0-30.003-19.354l385.946-483.789c12.339-14.387 17.664-13.773 30.771 1.946l385.741 483.789c13.772 17.357 11.98 17.408-31.489 17.408z" horiz-adv-x="819" />
<glyph unicode="&#xe03f;" d="M136.822 350.247c0-3.367-2.718-6.065-6.065-6.065h-123.687c-3.348 0-6.066 2.678-6.066 6.065v123.707c0 3.328 2.718 6.046 6.066 6.046h123.687c3.367 0 6.065-2.718 6.065-6.046v-123.707zM136.822 162.166c0-3.367-2.718-6.065-6.065-6.065l-123.687-0.020c-3.367 0-6.065 2.718-6.065 6.065v123.707c0 3.367 2.718 6.046 6.065 6.046h123.687c3.367 0 6.065-2.698 6.065-6.046v-123.687zM136.822-25.954c0-3.367-2.718-6.046-6.065-6.046h-123.687c-3.348 0-6.066 2.698-6.066 6.046v123.707c0 3.367 2.718 6.065 6.065 6.065h123.687c3.367 0 6.065-2.718 6.065-6.065l0.001-123.707z" horiz-adv-x="137" />
<glyph unicode="&#xe040;" d="M-7.595 331.406v146.091h34.645l20.794-99.669 20.508 99.669h34.702v-146.091h-21.475v115.001l-22.727-115.001h-22.272l-22.671 115.001v-115.029h-21.504zM124.53 403.57c0 14.876 1.735 27.364 5.234 37.461 2.617 7.424 6.172 14.137 10.695 20.025 4.494 5.916 9.415 10.297 14.791 13.141 7.111 3.869 15.36 5.803 24.661 5.803 16.896 0 30.379-6.656 40.533-20.025 10.155-13.34 15.19-31.943 15.19-55.723 0-23.58-5.035-42.040-15.076-55.381-10.041-13.34-23.495-19.996-40.306-19.996-17.095 0-30.606 6.599-40.647 19.883-10.069 13.283-15.075 31.544-15.075 54.812zM148.366 404.537c0-16.555 3.015-29.099 8.988-37.632s13.596-12.8 22.784-12.8c9.244 0 16.811 4.238 22.727 12.715 5.916 8.448 8.875 21.163 8.875 38.116 0 16.754-2.901 29.241-8.647 37.461-5.745 8.277-13.425 12.401-22.954 12.401s-17.181-4.21-23.012-12.515c-5.859-8.335-8.761-20.907-8.761-37.746zM256.967 331.406v146.091h48.668c12.26 0 21.106-1.308 26.652-3.954 5.575-2.617 10.012-7.282 13.369-14.023 3.328-6.684 5.006-14.393 5.006-23.012 0-10.951-2.56-19.996-7.595-27.164s-12.601-11.634-22.642-13.511c5.006-3.726 9.102-7.794 12.402-12.26 3.243-4.466 7.652-12.373 13.141-23.723l13.995-28.501h-27.676l-16.725 31.772c-5.945 11.349-9.984 18.546-12.203 21.476-2.19 2.958-4.494 5.006-6.912 6.087-2.475 1.109-6.372 1.65-11.634 1.65h-4.722v-60.985l-23.124 0.029zM280.092 415.687h17.152c11.093 0 18.034 0.597 20.764 1.82 2.759 1.195 4.921 3.243 6.457 6.172 1.593 2.93 2.361 6.571 2.361 10.98 0 4.921-1.024 8.875-3.1 11.918-2.048 3.015-4.949 4.921-8.704 5.746-1.877 0.341-7.481 0.512-16.868 0.512h-18.091l0.029-37.148zM375.637 331.406v146.091h84.907v-24.718h-61.81v-32.37h57.458v-24.633h-57.458v-39.765h63.972v-24.604l-87.069-0.001zM440.548 258.162h-418.76c-25.429 0-25.6 0-16.924-10.923l218.112-273.408c6.969-8.107 10.012-7.765 17.38 1.109l218.027 273.408c7.708 9.785 6.741 9.814-17.835 9.814z" horiz-adv-x="455" />
<glyph unicode="&#xe041;" d="M33.024 137.911l167.607-0.914c11.264-0.11 17.81-8.997 14.446-19.785l-7.131-39.973c-0.366-1.134-0.146-7.168 10.423-7.168 3.365 0 146.322 0 150.235 0 10.021 0 8.96 6.071 8.631 7.241l-7.534 40.96c-3.255 10.862 3.365 19.675 14.665 19.675h168.229c11.264 0 20.517 9.289 20.517 20.59l0.035 299.776c0 11.301-9.252 20.553-20.516 20.553h-519.607c-11.337 0-20.553-9.252-20.553-20.553v-299.739c0-11.337 9.216-20.627 20.553-20.663zM64.914 415.744c0 10.496 8.558 19.054 19.090 19.054l417.061-0.037c10.496 0 19.054-8.558 19.054-19.054v-208.091c0-10.459-8.558-19.054-19.054-19.054l-417.060 0.037c-10.533 0-19.090 8.594-19.090 19.054l-0.001 208.091zM581.413-14.848l-36.206 52.663c-7.131 8.777-22.235 15.945-33.536 15.945h-431.909c-11.337 0-26.734-6.875-34.341-15.36l-41.326-53.943c-7.534-8.411-4.462-15.36 6.802-15.36h562.871c11.375 0.037 14.776 7.241 7.645 16.055z" horiz-adv-x="585" />
<glyph unicode="&#xe042;" d="M23.795 81.341c-0.943-6.413-1.536-12.989-1.536-19.699 0-51.658 29.184-93.642 65.213-93.642 36.056 0 65.213 41.93 65.213 93.642 0 6.737-0.512 13.285-1.509 19.699h-127.381zM87.552 366.605c-45.622 0-82.621-67.153-82.648-149.989 0-34.304 6.602-65.536 17.219-90.759h130.776c10.671 25.25 17.219 56.455 17.219 90.759 0.055 82.837-36.971 149.989-82.566 149.989zM225.954 194.735c-0.997-6.413-1.59-13.043-1.59-19.806 0-51.658 29.211-93.588 65.24-93.588 36.056 0 65.24 41.903 65.24 93.588 0 6.791-0.539 13.393-1.509 19.806h-127.381zM289.711 480c-45.622 0-82.648-67.153-82.675-150.043 0-34.25 6.602-65.536 17.3-90.759h130.668c10.698 25.25 17.3 56.509 17.3 90.759 0.082 82.89-36.998 150.043-82.593 150.043z" horiz-adv-x="377" />
<glyph unicode="&#xe043;" d="M256.781 480h-217.141c-24.954 0-45.218-17.597-45.218-39.451v-433.017c0-21.8 20.264-39.505 45.218-39.505h217.169c24.926 0 45.218 17.704 45.218 39.505l-0.001 433.017c-0.027 21.854-20.291 39.451-45.245 39.451zM91.055 19.146h-16.734c-9.997 0-18.163 7.653-18.163 16.95 0 9.324 8.165 16.95 18.163 16.95h16.734c9.997 0 18.163-7.599 18.163-16.95s-8.165-16.95-18.163-16.95zM160.687 19.146h-16.653c-10.105 0-18.163 7.599-18.163 16.95s8.057 16.95 18.163 16.95h16.627c10.105 0 18.216-7.599 18.216-16.95s-8.085-16.95-18.19-16.95zM230.4 19.146h-16.707c-9.997 0-18.163 7.599-18.163 16.95s8.165 16.95 18.163 16.95h16.734c9.997 0 18.163-7.599 18.163-16.95s-8.166-16.95-18.19-16.95zM257.455 106.321h-218.435v315.527h218.435l-0.027-315.527zM199.141 362.86l-51.011-63.892-51.039 63.946-30.423-0.943v-20.103l57.856-72.462-57.856-72.434v-21.208l30.477 0.324 50.985 63.757 50.903-63.704 30.666-0.377v21.289l-57.936 72.407 57.936 72.462 0.135 20.049z" horiz-adv-x="296" />
<glyph unicode="&#xe044;" d="M323.111 190.011c13.785-9.058 25.718-12.367 37.258-12.446 11.973 0 24.497 3.781 37.849 11.855 13.036 7.522 107.638 88.97 193.694 164.864 40.172 35.328 78.966 69.79 109.529 96.965-9.69 15.675-27.688 25.088-46.317 25.167h-601.325c-18.786-0.079-36.982-9.649-46.631-25.758 30.523-25.6 78.966-66.324 129.418-108.465 82.353-68.844 171.559-142.218 186.525-152.182zM622.631 319.39c-36.273-31.783-72.35-63.37-104.172-90.86l190.503-171.717v338.943c-26.112-23.118-55.847-49.427-86.331-76.366zM0 396.071v-335.951l195.19 173.095c-64.197 52.973-143.36 119.297-195.19 162.856zM422.4 149.839c-18.747-11.422-39.621-18.669-61.637-18.669h-0.394c-21.267-0.078-42.929 6.853-63.055 20.323-9.334 6.341-33.988 25.994-65.811 51.909l-227.053-201.374c8.625-19.023 28.672-30.444 49.349-30.444h601.324c19.771 0 38.951 10.437 48.128 27.963l-220.356 198.695c-28.436-24.182-50.57-42.141-60.495-48.403z" horiz-adv-x="708" />
<glyph unicode="&#xe045;" d="M351.776 129.984l140.416 98.4c8.64 6.144 8.64 8.512 0.064 14.624v0.064l-146.528 102.72c-5.984 3.712-6.272 1.824-6.272-8.128v-48.64c0-8.608-2.336-10.176-14.592-10.176h-320.384c-2.464-0.032-4.48-2.080-4.48-4.512v-76.064c0-2.464 2.016-4.448 4.48-4.448l320.384-0.192c12.352 0 14.592-1.536 14.592-10.112v-49.504c0-12.672 0.384-12.448 12.32-4.032zM236.864 337.216v57.76l301.088-0.032 0.032-342.048h-301.12v47.712h-69.92v-76.832c0-33.952 31.776-61.6 71.040-61.6l298.944 0.032c39.2 0 71.072 27.584 71.072 61.536v400.384c0 34.048-31.872 61.632-71.072 61.632h-298.944c-39.264 0-71.040-27.616-71.040-61.632v-86.912h69.92z" horiz-adv-x="608" />
<glyph unicode="&#xe046;" d="M474.65 442.701c-49.715 49.715-130.304 49.715-180.019 0-44.646-44.57-49.050-113.946-13.67-163.686l-274.689-274.74c-8.294-8.269-8.294-21.658 0-29.952 4.147-4.198 9.523-6.349 14.976-6.349 5.427 0 10.803 2.125 14.95 6.349l274.688 274.714c49.741-35.456 119.142-30.976 163.738 13.619 49.741 49.69 49.741 130.253 0.026 180.045z" />
<glyph unicode="&#xe047;" d="M773.803 333.184c0 0-205.099 149.931-233.643 149.931-14.848 0-86.059-54.528-116.608-54.528-28.373 0-97.621 54.528-114.091 54.528-34.218 0-272.64-149.931-272.64-149.931-20.352-7.68-36.821-20.736-36.821-46.379v-54.229c0-25.6 19.627-31.104 36.821-46.379 0 0 190.891-221.355 365.269-221.355 174.336 0 371.712 221.355 371.712 221.355 15.531 10.496 36.821 20.779 36.821 46.379l0.001 54.229c0.043 25.643-16.469 32.342-36.821 46.379zM699.307 226.859c0 0-195.115-103.723-294.528-103.723s-293.462 103.723-293.462 103.723c-10.325 3.499-21.632 12.203-21.632 27.349 0 15.061 35.712 10.496 47.659 10.496 0 0 222.037 57.771 269.611 57.771s266.368-57.771 266.368-57.771c11.947 0 47.659 4.565 47.659-10.496-0.001-15.104-5.334-17.792-21.675-27.349z" horiz-adv-x="810" />
<glyph unicode="&#xe048;" d="M772.779 488.576c2.432-16.128 20.096-78.464 2.688-133.163-14.166-44.842-59.136-74.24-72.491-81.834l-137.131-75.989c-13.952-7.851-17.408-7.424-22.784 2.176l-30.976 55.765c-7.979 14.208-8.235 13.696-16.469-3.2l-96.384-198.656c-5.888-12.373-4.437-15.019 9.088-16.555v-0.085l229.333-23.723c9.003-0.512 8.149 1.835 1.92 13.056l-30.549 54.699c-5.291 9.685-3.712 12.971 10.069 20.565l137.045 76.331c35.029 19.499 66.389 45.013 86.4 83.115 46.294 87.893-71.85 242.133-69.759 227.498zM287.531 250.411c13.866 7.808 17.408 7.466 22.784-2.219l31.018-55.68c7.936-14.208 8.149-13.781 16.469 3.2l96.384 198.571c5.888 12.373 4.437 15.019-9.088 16.64v0l-229.333 23.722c-9.13 0.555-8.192-1.792-2.005-12.97l30.507-54.784c5.376-9.685 3.797-12.885-10.069-20.565l-137.045-76.331c-35.029-19.499-66.389-45.013-86.4-83.115-46.165-87.893 71.936-242.219 69.803-227.499-2.347 16.128-20.096 78.464-2.688 133.163 14.293 44.8 59.136 74.368 72.619 81.792l137.044 76.075z" horiz-adv-x="853" />
<glyph unicode="&#xe049;" d="M104.59-12.942c-13.767 10.24-29.924 24.007-45.682 39.623v0c-31.061 31.971-62.122 67.214-63.715 105.387v0c0 26.027 0 105.358 0 178.318v0c0 72.846 0 139.008 0 139.15v0c0 10.126 8.192 18.261 18.261 18.261v0c10.041 0 18.261-8.164 18.261-18.261v0c0-0.313 0-265.415 0-317.497v0c-1.422-12.772 20.281-47.132 47.445-73.984v0c23.609-24.747 52.708-46.82 63.374-52.537v0c0.398 0.228 0.768 0.455 1.195 0.711v0c3.612 2.19 8.818 6.030 14.82 10.894v0c11.918 9.785 26.795 23.95 41.017 40.277v0c28.814 32.284 53.817 74.439 53.106 101.945v0c-0.057 24.548-0.057 66.247-0.057 110.962v0c0 66.532 0 139.776 0.057 173.056v0l-134.258 0.029c0-54.556 0-214.841 0-252.331v0c-1.166-27.108 15.218-61.070 24.263-72.988v0c0.284 0.256 0.512 0.54 0.711 0.768v0c4.494 5.006 10.325 12.942 15.616 21.988v0c10.837 17.948 19.428 41.358 19.058 53.561v0c0 36.636 0 192.057 0 195.385v0c0 10.126 8.192 18.261 18.204 18.261v0c10.155 0.085 18.318-8.107 18.318-18.204v0c0 0 0.057-158.464 0.057-195.442v0c-1.052-36.665-24.377-77.084-44.089-100.068v0c-7.623-7.083-11.748-14.535-27.819-16.128v0c-14.336 1.024-19.883 8.107-26.311 14.649v0c-6.087 6.969-11.577 15.701-16.583 25.714v0c-9.956 20.224-17.92 45.966-17.977 72.448v0c0 22.727 0 90.34 0 152.292v0c0 62.009 0 118.187 0 118.3v0c0 4.836 1.906 9.557 5.376 12.942v0c3.414 3.498 8.165 5.461 12.943 5.461v0h170.752c4.836 0 9.557-1.963 12.914-5.376v0c3.413-3.385 5.376-8.107 5.376-12.942v0c0-0.228 0-101.803 0-191.374v0c0-44.8-0.057-86.5 0-110.905v0c-1.906-67.812-67.157-136.078-107.463-170.496v0c-15.332-11.122-21.305-18.802-38.94-20.878v0c-16.669 1.82-23.040 8.931-38.23 19.029v0zM145.323 4.21c0 0 0.057 0.028 0.057 0.057v0l-0.057-0.057zM178.034 389.888c0 0 0 0 0-0.057v0 0.057z" horiz-adv-x="284" />
<glyph unicode="&#xe04a;" d="M479.118 304.555c0 0-104.306-26.14-143.332-31.061-38.77-4.864-52.48 26.169-87.211 15.246-33.194-10.383-179.142-77.54-179.142-77.54v268.8c0 0 137.5-45.113 173.17-58.766 31.232-11.975 37.319-33.564 75.264-46.194 40.050-13.369 161.252-46.194 161.252-46.194l-0.001-24.291zM42.041-32v503.125c0 4.893-4.011 8.875-8.903 8.875h-19.826c-4.921 0-8.903-3.982-8.903-8.875v-503.125h37.632z" horiz-adv-x="483" />
<glyph unicode="&#xe04b;" d="M5.419-32h151.509v512h-151.509v-512zM269.781 480v-512h151.467v512h-151.467z" horiz-adv-x="426" />
<glyph unicode="&#xe04d;" d="M145.824 134.88h-81.984l-3.616 18.528c-10.656 57.76 10.016 99.136 62.784 136.896 19.968 14.272 47.104 28.576 47.104 57.792 0 34.944-27.136 49.216-58.528 49.216-39.936 0-64.128-22.848-76.992-32.8l-43.488 61.28c17.792 18.528 64.864 54.208 138.304 54.208 72.736 0 135.488-44.224 135.488-119.104 0-65.632-39.936-92.032-65.632-108.384-43.488-27.808-54.144-62.752-54.912-92.704 0.032-8.512 0.768-17.152 1.472-24.928zM113.76-32c-32.128 0-57.792 26.4-57.792 59.232s26.4 59.168 59.232 59.168c32.064 0 58.464-26.336 58.464-59.168s-27.168-59.232-59.904-59.232z" horiz-adv-x="256" />
<glyph unicode="&#xe050;" d="M431.758 232.704c-75.719 0-137.074-61.412-137.074-137.131s61.383-137.074 137.074-137.074c75.748 0 137.131 61.355 137.131 137.074s-61.412 137.131-137.131 137.131zM431.758-17.721c-62.521 0-113.266 50.716-113.266 113.266s50.745 113.266 113.266 113.266c62.549 0 113.266-50.716 113.266-113.266s-50.716-113.266-113.266-113.266zM485.632 58.852c-4.068 17.948-11.378 28.558-24.491 32.711v1.593c16.356 4.921 27.733 16.356 27.733 31.829 0 12.203-5.632 22.784-13.028 28.501-9.813 6.542-21.22 10.61-46.478 10.61-22.044 0-39.14-2.418-51.342-4.864v-132.949h30.948v52.992h14.706c17.095 0 25.259-6.485 27.733-21.163 4.068-15.531 6.428-26.908 10.553-31.829h33.451c-3.3 4.010-5.774 12.202-9.785 32.569zM424.42 101.262h-14.649v38.343c3.271 0.768 8.96 1.65 17.095 1.65 19.57 0 28.558-8.192 28.558-20.423 0-13.824-13.852-19.57-31.004-19.57zM275.684 107.122c-12.345-13.767-28.359-25.202-47.844-25.202-37.746 0-59.108 38.542-67.413 57.486-3.556 8.96-5.803 9.842-15.104 7.566-32.427-7.936-125.298-30.748-136.875-34.304-2.418-0.796-5.348-4.465-8.448-9.87v-94.834h302.421c-17.18 24.889-27.364 55.068-27.364 87.609 0.001 3.897 0.342 7.737 0.627 11.549zM268.345 482.304c-41.956 10.183-55.95 2.076-55.95 2.076s-10.496 10.184-31.431 1.992c-20.992-8.135-69.945-57.259-64.711-102.201 5.262-44.999 13.995-102.315 17.493-92.046 3.442 10.212 0 69.547 5.262 85.902 4.153 13.027 40.249 36.608 54.756 45.625 2.788 1.707 6.599 3.499 8.704 1.308v-0.057c11.321-9.842 54.727-46.649 72.903-44.8 12.629 1.195 21.447 1.707 26.396 1.849 1.707 0 3.385-0.825 3.157-2.532l-3.442-25.372c0 0 0-31.004 0-66.503s-5.404-54.414-8.704-61.412c-11.804-25.486-31.829-39.424-52.452-43.776-13.141-2.788-27.733-0.398-35.157 0.228-3.214 0.341-3.84-0.711-1.081-2.645 4.978-3.556 14.222-10.837 29.326-14.108 18.204-4.011 43.207-4.807 56.974 17.778 15.787 26.084 26.254 111.417 26.254 111.417 12.146 24.149 18.091 52.281 16.356 76.772-1.762 24.603-22.698 100.293-64.653 110.505z" horiz-adv-x="568" />
<glyph unicode="&#xe051;" d="M173.632 382.912c4.064-9.856 15.488-15.648 23.776-20.768 0.96-0.96 1.92-1.984 2.944-2.944 1.984 1.984 4 3.936 5.952 5.952-0.992 2.912-1.952 5.92-3.008 8.896 5.44 6.752 3.136 4.8 14.848 5.952v2.912c-15.2 8.704-17.984 20-38.592 23.776 3.2-11.808 1.664-15.648-5.92-23.776zM384.48 332.416c-2.464-11.648 1.12-14.848 2.976-29.664 9.216 2.336 6.752 0.96 11.872 5.92h3.008c-3.936 8.224-10.112 19.040-17.856 23.744zM256.032 480c-141.344 0-256-114.656-256-256s114.656-256 256-256c141.28 0 255.904 114.624 255.904 256 0.032 141.344-114.56 256-255.904 256zM152.864 32.544c-69.824 25.056-135.2 125.28-112.864 231.648 7.008-8.928 13.856-17.856 20.832-26.752 0-0.992 0-1.984 0-2.976 1.952 0 3.936 0 5.92 0-3.968 6.944-7.936 13.856-11.904 20.8 0 2.976 0 5.888 0 8.896 15.872-12.224 16.8-32.352 29.632-47.52 1.152-1.312 61.44-36.8 68.384-41.6-4-6.88-7.936-13.824-11.936-20.768 3.104-31.488 17.184-35.872 26.752-56.416 7.008-14.304-13.312-42.208-14.816-65.312zM420.096 246.368c-14.816-1.984-29.696-3.936-44.544-5.952-18.624-6.656-27.072-27.392-38.624-41.568 2.336-19.36 9.568-26.272 17.824-38.592 11.36-4.256 38.080-3.136 50.528-8.928 3.008-19.808 5.952-39.584 8.864-59.36-0.384-14.656-5.792-27.68-14.752-39.040-38.784-32.544-88.768-52.16-143.328-52.16-26.56 0-51.968 4.64-75.584 13.152 20.672 45.312 79.168 58.656 94.112 113.664 0.992 1.984 1.984 3.968 2.976 5.984-14.816 4.896-29.664 9.824-44.544 14.784-12.32 9.856-16.544 28.096-32.64 35.68-17.824 1.952-35.584 4-53.472 5.92-14.816 14.848-29.664 29.728-44.48 44.544 0.928 3.872 1.92 7.936 2.912 11.872 4.96 0.96 9.856 1.952 14.848 2.944 19.008-0.512 22.144-3.808 29.664-14.848 14.048 27.488 21.312 54.176 56.416 59.328-0.96 3.008-1.92 5.984-2.976 8.96 0 1.952 0 4 0 5.92 7.936 0 15.872 0 23.808 0 1.952 0 3.968 0 5.856 0-3.936 13.504-17.728 28.672-26.656 38.624-3.584 4.416-4.672-0.064-8.928-2.976-10.144 4.384-12.576 9.088-17.824 17.824-2.976 0-5.92 0-8.864 0 0-7.936 0-15.872 0-23.776-1.024-3.936-2.016-7.904-2.976-11.84-25.536 2.048-31.84 15.392-47.488 26.688 0.96 10.496 1.76 14.624 5.888 20.832 7.2 8.896 17.696 10.88 26.752 17.76 0.96 0 1.952 0 2.944 0-5.856 6.976-18.208 5.056-26.688 8.928-0.992 1.024-2.048 1.984-3.008 2.976 9.152 4.832 13.28 10.176 23.744 5.92 14.24 9.536 31.36 19.072 47.52 29.696 9.952-2.912 19.808-5.92 29.76-8.896 12.96-10.56 14.24-30.56 26.656-41.536-2.976-2.048-5.92-3.968-8.896-5.984 1.088-17.568 4.352-24.384 17.824-29.696l68.288 38.592c4 11.904 7.904 23.84 11.84 35.648 5.632-1.632 10.944-3.392 16.064-5.312 44.48-23.104 80.192-60.832 100.832-106.72-2.848-3.616-5.888-7.488-7.008-9.696-7.936 2.944-15.84 5.888-23.776 8.864-8.128 2.592-27.52-17.728-47.456-20.832 1.952-3.936 3.968-7.904 5.92-11.84-4.384-2.944-12.672-5.824-17.792-8.864-1.984-3.008-4-5.984-5.984-8.896 1.024-4 1.984-7.936 3.040-11.904 25.44 1.664 34.912 19.68 50.464 20.832 12.448-3.392 11.136-3.232 14.848-14.848 10.944 4.608 6.208-1.056 8.896 11.872 9.44-5.504 11.104-6.144 14.816-17.824 5.888 3.008 11.872 5.952 17.792 8.864 0.384-4.416 2.176-8.576 4.416-12.672 0.736-7.2 1.216-14.624 1.312-22.112-9.024-1.312-18.752-3.552-23.52-6.72-19.040 2.656-27.264 13.888-35.616 26.72z" />
<glyph unicode="&#xe052;" d="M0 450.118v-452.096c0-27.508 0-27.601 11.45-18.246l286.813 235.473c8.564 7.587 8.192 10.752-1.117 18.758l-286.813 235.288c-10.286 8.378-10.333 7.354-10.333-19.177zM393.821 450.118v-452.096c0-27.508 0-27.601 11.45-18.246l286.813 235.473c8.564 7.587 8.192 10.752-1.117 18.758l-286.813 235.288c-10.286 8.378-10.333 7.354-10.333-19.177z" horiz-adv-x="698" />
<glyph unicode="&#xe054;" d="M43.634 307.826c26.908-17.579 56.69-22.869 86.585-22.869h117.077c11.776 0 14.023-1.536 14.023-9.813v-46.791c0-9.557 0.284-11.378 6.059-7.794l140.914 98.815c8.249 5.888 8.249 8.164-0.114 14.080l-135.026 94.635c-11.492 8.050-11.833 8.22-11.833-3.925v-47.559c0-8.306-2.133-9.756-14.023-9.785l-117.077-0.171c-11.492 0.057-51.485 3.015-77.056 27.051-31.175 29.383-42.212 76.458-46.564 87.864-3.954 10.326-24.974-133.176 37.035-173.738zM198.059 54.869c26.852-17.607 56.633-22.869 86.585-22.869l117.077-0.028c11.776 0 13.966-1.508 14.023-9.785v-46.791c-0.057-9.557 0.284-11.406 6.002-7.794l140.971 98.787c8.249 5.86 8.249 8.135-0.114 14.080l-135.026 94.635c-11.492 8.050-11.833 8.22-11.89-3.925l0.057-47.588c-0.057-8.277-2.19-9.756-14.023-9.785l-117.077-0.171c-11.548 0.057-51.541 2.987-77.084 27.051-31.118 29.412-42.212 76.459-46.535 87.893-3.955 10.326-24.975-133.148 37.034-173.71z" horiz-adv-x="568" />
<glyph unicode="&#xe055;" d="M681.131 488.064c-81.536 4.309-111.445-10.453-136.96-62.037-25.515-51.499-22.144-135.893-141.781-167.765-92.245-24.619-170.368-79.147-210.816-130.645 54.997 1.492 181.589 8.66 266.282 45.396 126.677 54.955 177.408 122.709 177.408 122.709s-36.907-92.373-179.883-167.253c-107.69-56.362-306.816-52.565-306.816-52.565l-127.232 7.851c0 0-44.843-7.979-4.437-16.213 24.704-4.949 93.483-13.227 143.36-18.944l84.651-60.117c19.925-21.077 172.629-45.099 261.888-15.147 55.211 18.603 116.523 54.357 183.083 101.376-88.363 13.824-131.157 80.384-131.157 80.384s116.139-47.616 183.637-40.789c31.872 25.941 47.019 52.693 65.493 89.856 30.464 61.44 42.069 99.456 45.44 144.896 3.114 41.77-90.71 134.655-172.16 139.007z" horiz-adv-x="853" />
<glyph unicode="&#xe056;" d="M270.222 480.996l63.83-196.324h206.392l-166.997-121.344 63.773-196.352-166.998 121.344-166.997-121.344 63.772 196.352-166.997 121.344h206.393z" horiz-adv-x="540" />
<glyph unicode="&#xe057;" d="M605.091 446.022v-440.134c0-26.764 0-26.857-11.124-17.78l-412.021 229.236c-8.238 7.354-7.913 10.473 1.164 18.246l411.927 229.19c10.054 8.099 10.054 7.075 10.054-18.758zM0-15.104c0-3.351 2.746-6.144 6.097-6.144h140.195c3.305 0 6.051 2.793 6.051 6.144l0.047 477.882c0 3.351-2.746 6.051-6.051 6.051h-140.195c-3.398-0.046-6.144-2.7-6.144-6.051v-477.882z" horiz-adv-x="605" />
<glyph unicode="&#xe058;" d="M0 446.022v-440.087c0-26.764 0-26.95 11.124-17.78l411.927 229.19c8.332 7.447 7.959 10.519-1.117 18.292l-411.88 229.096c-10.007 8.146-10.054 7.122-10.054-18.711zM605.091-15.151c0-3.351-2.746-6.051-6.097-6.051h-140.195c-3.305 0-6.097 2.7-6.097 6.051l-0.001 477.836c0 3.351 2.793 6.144 6.097 6.144h140.195c3.351 0 6.097-2.793 6.097-6.144l0.001-477.836z" horiz-adv-x="605" />
<glyph unicode="&#xe059;" d="M244.17 446.477v28.457c0 2.775-6.333 5.066-14.147 5.066h-217.519c-7.788 0-14.121-2.291-14.121-5.066v-28.429c0-2.829 6.333-5.12 14.12-5.12h14.12c-8.649-5.417-14.497-15.010-14.497-26.005l43.466-149.585c7.949-30.451 52.467-40.96 52.467-40.96s-52.467-25.654-52.467-42.631l-43.466-149.558c0-11.021 5.875-20.588 14.552-26.058l-14.174-0.026c-7.788 0.027-14.121-2.237-14.121-5.039v-28.429c0-2.803 6.333-5.093 14.12-5.093h217.519c7.788 0 14.12 2.291 14.12 5.093v28.429c0 2.803-6.333 5.066-14.12 5.066l-14.066-0.027c8.677 5.443 14.498 15.010 14.498 26.058l-43.412 149.558c0 16.977-52.467 41.176-52.467 41.176s45.703 12.45 52.467 42.415l43.412 149.585c0 10.995-5.821 20.588-14.498 26.004h14.093c7.788 0.026 14.121 2.317 14.121 5.119z" horiz-adv-x="242" />
<glyph unicode="&#xe05a;" d="M366.519 472.21c-0.073-0.073-0.073-0.073-0.073-0.073-19.127-21.65-83.566-90.587-146.907-115.493-55.809-21.906-84.846-28.233-182.456-28.233-23.113 0-37.083-13.75-37.083-28.269v-159.89c0-13.129 19.419-28.233 50.578-28.233 113.92 0 128.329-4.169 168.96-28.233 71.717-42.423 129.097-98.085 146.907-116.187 0 0 0 0 0.073 0 4.242-4.827 5.669-1.28 5.669 1.061v502.417c0 2.34-1.389 5.888-5.668 1.133zM498.651 413.33l-35.035-37.888c72.558-79.104 72.558-206.702 0-285.659l34.962-38.034v0.073c92.051 99.693 92.124 261.559 0.073 361.508zM433.445 342.711l-35.035-37.961c36.608-39.936 36.608-104.265 0-144.091l34.962-38.034c55.954 60.744 55.954 159.194 0.073 220.086zM562.725 482.853l-34.962-37.961c107.922-117.614 107.922-307.383 0-424.741l34.962-38.034c127.414 138.203 127.414 362.24 0 500.736z" horiz-adv-x="658" />
</font>
</defs>
</svg>
